<ttFont>
<head>
    <!-- Most of this table will be recalculated by the compiler -->
    <tableVersion value="1.0"/>
    <fontRevision value="1.0"/>
    <checkSumAdjustment value="0xa530081c"/>
    <magicNumber value="0x5f0f3cf5"/>
    <flags value="00000000 00000011"/>
    <unitsPerEm value="2048"/>
    <created value="Thu Aug 15 19:06:37 2019"/>
    <modified value="Fri Aug 16 02:18:58 2019"/>
    <xMin value="-482"/>
    <yMin value="-522"/>
    <xMax value="3319"/>
    <yMax value="1983"/>
<macStyle value="00000000 00000000"/>
    <lowestRecPPEM value="3"/>
    <fontDirectionHint value="2"/>
    <indexToLocFormat value="0"/>
    <glyphDataFormat value="0"/>
  </head>
          <CharString index="0">
            -1094 -79 callgsubr
            return
          </CharString>
          <CharString index="1">
            rmoveto
            5 callsubr
            return
          </CharString>
          <CharString index="2">
            309 -231 198 -302 -305 -233 -210 -303 return
          </CharString>
          <CharString index="3">
            rmoveto
            -19 callsubr
            52 callsubr
            endchar
          </CharString>
          <CharString index="4">
            455 -346 287 -403 89 callsubr
            vhcurveto
            334 14 rmoveto
            392 117 278 287 67 callsubr
            endchar
          </CharString>
          <CharString index="5">
            40 callsubr
            endchar
          </CharString>
          <CharString index="6">
            rmoveto
            304 234 211 303 return
          </CharString>
          <CharString index="7">
            155 callsubr
            endchar
          </CharString>
          <CharString index="8">
            501 43 vlineto
            -93 16 -12 17 68 vvcurveto
            return
          </CharString>
          <CharString index="9">
            1532 rmoveto
            352 276 rlineto
            6 return
          </CharString>
          <CharString index="10">
            rmoveto
            -28 callsubr
            1123 vlineto
            -35 callsubr
            -8 callsubr
            endchar
          </CharString>
          <CharString index="11">
            -650 vlineto
            -37 callsubr
            return
          </CharString>
          <CharString index="12">
            rmoveto
            -70 callsubr
            return
          </CharString>
          <CharString index="13">
            635 -41 callgsubr
            -518 vlineto
            -68 -15 -18 -91 -15 vhcurveto
            -43 501 43 vlineto
            82 callgsubr
            return
          </CharString>
          <CharString index="14">
            rmoveto
            -311 222 -198 289 return
          </CharString>
          <CharString index="15">
            -284 vlineto
            -123 -281 rlineto
            return
          </CharString>
          <CharString index="16">
            -82 callsubr
            endchar
          </CharString>
          <CharString index="17">
            49 callsubr
            endchar
          </CharString>
          <CharString index="18">
            28 callsubr
            55 -34 callgsubr
            194 159 120 76 110 52 vhcurveto
            -178 vlineto
            return
          </CharString>
          <CharString index="19">
            rmoveto
            -21 callgsubr
            219 callsubr
            endchar
          </CharString>
          <CharString index="20">
            48 callsubr
            endchar
          </CharString>
          <CharString index="21">
            rmoveto
            73 59 52 69 69 -59 52 -73 return
          </CharString>
          <CharString index="22">
            rmoveto
            1094 6 callsubr
            -107 callsubr
            return
          </CharString>
          <CharString index="23">
            -284 vlineto
            -140 -367 rlineto
            return
          </CharString>
          <CharString index="24">
            74 callsubr
            endchar
          </CharString>
          <CharString index="25">
            513 43 vlineto
            -100 17 -17 19 71 vvcurveto
            return
          </CharString>
          <CharString index="26">
            rmoveto
            -393 -47 0 -40 55 -17 rlineto
            55 return
          </CharString>
          <CharString index="27">
            1097 rmoveto
            369 359 rlineto
            8 return
          </CharString>
          <CharString index="28">
            rmoveto
            545 134 -545 hlineto
            endchar
          </CharString>
          <CharString index="29">
            -569 26 callsubr
            return
          </CharString>
          <CharString index="30">
            60 55 72 72 -60 55 return
          </CharString>
          <CharString index="31">
            rmoveto
            314 -543 rlineto
            -465 vlineto
            -99 -21 -30 -128 -18 vhcurveto
            -43 599 -89 callgsubr
            483 vlineto
            286 487 110 187 38 35 97 19 rlinecurve
            43 -380 -43 vlineto
            134 -19 11 -43 -92 -175 rrcurveto
            -231 -437 -261 466 -83 148 19 42 121 18 rlinecurve
            43 return
          </CharString>
          <CharString index="32">
            -43 hlineto
            117 -20 21 -23 -89 vvcurveto
            return
          </CharString>
          <CharString index="33">
            rmoveto
            337 -808 -74 -141 -127 -185 -93 -100 rlinecurve
            -4 212 vlineto
            153 435 115 276 201 496 61 150 28 27 83 16 rlinecurve
            44 -332 -44 vlineto
            115 -16 16 -31 -49 -137 rrcurveto
            -168 -472 -172 477 -47 133 14 30 117 16 rlinecurve
            44 -545 -44 vlineto
            80 -17 26 -24 49 -121 rrcurveto
            endchar
          </CharString>
          <CharString index="34">
            443 1491 -95 callsubr
            -52 callsubr
            return
          </CharString>
          <CharString index="35">
            1488 rmoveto
            -245 -188 -243 188 return
          </CharString>
          <CharString index="36">
            -19 8 -12 -61 vvcurveto
            -96 callsubr
            return
          </CharString>
          <CharString index="37">
            -396 71 callsubr
            return
          </CharString>
          <CharString index="38">
            rmoveto
            -8 -310 rlineto
            40 hlineto
            45 188 62 54 200 12 rrcurveto
            159 7 -519 -896 rlineto
            -39 return
          </CharString>
          <CharString index="39">
            vlineto
            90 21 22 116 20 vhcurveto
            43 -569 -43 vlineto
            110 -19 21 -21 -86 vvcurveto
            return
          </CharString>
          <CharString index="40">
            -373 rlineto
            41 hlineto
            50 237 85 63 246 19 50 4 rcurveline
            return
          </CharString>
          <CharString index="41">
            -508 -632 508 vlineto
            85 22 22 108 18 vhcurveto
            44 return
          </CharString>
          <CharString index="42">
            -603 -43 vlineto
            91 -17 35 -29 93 -157 rrcurveto
            endchar
          </CharString>
          <CharString index="43">
            1097 rmoveto
            245 187 243 -187 return
          </CharString>
          <CharString index="44">
            440 996 -81 callsubr
            return
          </CharString>
          <CharString index="45">
            rmoveto
            -31 callsubr
            332 hmoveto
            return
          </CharString>
          <CharString index="46">
            1532 rmoveto
            228 139 return
          </CharString>
          <CharString index="47">
            1198 rmoveto
            586 149 -586 hlineto
            return
          </CharString>
          <CharString index="48">
            -72 -59 -52 -69 -69 59 -52 72 hvcurveto
            endchar
          </CharString>
          <CharString index="49">
            -63 -51 -47 -63 -62 51 -49 63 hvcurveto
            return
          </CharString>
          <CharString index="50">
            -1204 -78 callgsubr
            return
          </CharString>
          <CharString index="51">
            598 -89 callgsubr
            return
          </CharString>
          <CharString index="52">
            rmoveto
            135 94 67 105 105 return
          </CharString>
          <CharString index="53">
            -47 callsubr
            endchar
          </CharString>
          <CharString index="54">
            -213 123 -84 155 117 104 54 55 40 vhcurveto
            223 callsubr
            return
          </CharString>
          <CharString index="55">
            -1145 vlineto
            -37 callsubr
            return
          </CharString>
          <CharString index="56">
            rmoveto
            98 62 -90 callgsubr
            -27 -22 -48 hhcurveto
            -28 -30 7 15 return
          </CharString>
          <CharString index="57">
            77 callsubr
            -150 0 -206 -281 rlineto
            return
          </CharString>
          <CharString index="58">
            1271 1444 rmoveto
            -1217 hlineto
            -14 return
          </CharString>
          <CharString index="59">
            1594 rmoveto
            528 126 -528 hlineto
            return
          </CharString>
          <CharString index="60">
            569 43 vlineto
            -109 19 -21 21 86 vvcurveto
            return
          </CharString>
          <CharString index="61">
            474 1444 0 callsubr
            return
          </CharString>
          <CharString index="62">
            rmoveto
            -66 -54 -50 -65 -65 54 -50 66 66 return
          </CharString>
          <CharString index="63">
            1097 rmoveto
            55 -4 callgsubr
            return
          </CharString>
          <CharString index="64">
            54 50 65 65 -54 50 -66 hvcurveto
            endchar
          </CharString>
          <CharString index="65">
            rmoveto
            228 169 226 -169 return
          </CharString>
          <CharString index="66">
            rmoveto
            -66 -53 -50 -65 -65 53 -50 66 return
          </CharString>
          <CharString index="67">
            1832 rmoveto
            -228 -139 return
          </CharString>
          <CharString index="68">
            -50 -47 -63 -62 50 -49 63 hvcurveto
            return
          </CharString>
          <CharString index="69">
            1849 rmoveto
            134 vlineto
            return
          </CharString>
          <CharString index="70">
            -71 -18 -19 -100 -17 vhcurveto
            -43 return
          </CharString>
          <CharString index="71">
            rmoveto
            -161 128 -102 171 -31 vhcurveto
            -183 -24 -109 -85 -1 -120 rrcurveto
            -124 125 -77 181 vhcurveto
            -243 -16 -108 -78 -108 vvcurveto
            -142 192 -94 299 284 234 145 219 186 -139 107 -267 vhcurveto
            -169 hlineto
            -115 -58 32 62 53 43 37 75 15 hvcurveto
            -6 42 36 -4 38 hhcurveto
            245 203 121 201 111 -66 90 -105 41 hvcurveto
            277 -18 0 82 -335 -21 rlineto
            22 -61 -78 16 -86 hhcurveto
            -253 -197 -129 -200 hvcurveto
            273 11 rmoveto
            161 62 103 115 116 67 -110 -163 -162 -65 -101 -112 -113 -70 107 165 vhcurveto
            -79 -917 rmoveto
            94 57 65 110 13 vhcurveto
            164 hlineto
            153 68 -61 -101 -127 -118 -80 -171 -165 -98 83 114 hvcurveto
            endchar
          </CharString>
          <CharString index="72">
            16 410 rlineto
            -41 hlineto
            -59 -273 -85 -64 -291 -13 rrcurveto
            -224 -10 0 664 233 -5 126 -5 30 -51 28 -151 rlinecurve
            38 474 -38 hlineto
            -31 -151 return
          </CharString>
          <CharString index="73">
            rmoveto
            171 117 79 126 -8 hvcurveto
            -49 hlineto
            -52 -6 -95 -34 -130 hhcurveto
            -129 -96 34 52 -6 hvcurveto
            -49 hlineto
            -126 return
          </CharString>
          <CharString index="74">
            -296 -163 329 374 400 172 263 283 -2 callgsubr
          </CharString>
          <CharString index="75">
            rmoveto
            167 114 93 148 -8 hvcurveto
            -48 hlineto
            -61 -6 -92 -40 -127 hhcurveto
            return
          </CharString>
          <CharString index="76">
            56 44 41 55 57 -44 41 -56 hvcurveto
            -8 81 callsubr
            return
          </CharString>
          <CharString index="77">
            128 callsubr
            -54 -49 -65 -64 54 -50 67 hvcurveto
            return
          </CharString>
          <CharString index="78">
            rmoveto
            54 41 34 48 47 -41 35 -54 hvcurveto
            -8 hlineto
            -53 return
          </CharString>
          <CharString index="79">
            -1076 -75 callsubr
            -107 callsubr
            return
          </CharString>
          <CharString index="80">
            -256 209 -35 0 -255 -209 rlineto
            return
          </CharString>
          <CharString index="81">
            -74 -73 -60 -55 -72 -72 60 -55 73 hvcurveto
            return
          </CharString>
          <CharString index="82">
            -160 -120 -75 -109 -54 vhcurveto
            return
          </CharString>
          <CharString index="83">
            120 108 63 114 108 return
          </CharString>
          <CharString index="84">
            -59 -55 -72 -72 59 -55 74 hvcurveto
            return
          </CharString>
          <CharString index="85">
            588 -89 callgsubr
            return
          </CharString>
          <CharString index="86">
            rmoveto
            278 -780 131 0 272 744 266 -744 131 0 268 742 56 158 31 26 80 16 rlinecurve
            44 -316 -44 vlineto
            102 -15 15 -32 -44 -145 rrcurveto
            -150 -476 -152 480 -44 141 14 33 100 14 rlinecurve
            44 -501 -44 vlineto
            98 -15 13 -32 -42 -140 rrcurveto
            -154 -481 -148 480 -42 141 11 32 105 15 rlinecurve
            44 -533 -44 vlineto
            81 -18 32 -24 42 -120 rrcurveto
            endchar
          </CharString>
          <CharString index="87">
            rmoveto
            -452 321 -296 452 204 204 55 89 118 vhcurveto
            393 vlineto
            91 19 23 113 13 vhcurveto
            43 -544 -43 vlineto
            121 -13 19 -22 -91 vvcurveto
            -408 vlineto
            -41 -47 -88 -28 -104 hhcurveto
            -295 -159 327 376 400 170 263 288 224 143 -160 -241 53 hvcurveto
            41 hlineto
            -11 367 rlineto
            53 -79 -157 42 -226 hhcurveto
            -431 -349 -258 -482 hvcurveto
            endchar
          </CharString>
          <CharString index="88">
            -429 1193 -177 0 -418 -1152 -72 -198 -32 -37 -105 -18 rlinecurve
            -43 392 43 vlineto
            -140 21 -18 44 61 183 rrcurveto
            71 213 462 0 83 -243 53 -156 -24 -44 -129 -18 rlinecurve
            -43 return
          </CharString>
          <CharString index="89">
            -20 38 -3 166 rrcurveto
            -18 992 846 -1257 206 0 13 1181 2 162 19 39 121 19 rlinecurve
            43 -379 -44 vlineto
            127 -17 18 -38 4 -166 19 -860 rcurveline
            return
          </CharString>
          <CharString index="90">
            rmoveto
            -467 337 -284 443 202 176 50 53 74 vhcurveto
            12 368 rlineto
            -27 callgsubr
            return
          </CharString>
          <CharString index="91">
            rmoveto
            -67 -53 -50 -65 -65 53 -50 67 66 53 50 65 65 -53 50 -66 hvcurveto
            endchar
          </CharString>
          <CharString index="92">
            16 430 rlineto
            -41 hlineto
            -65 -286 -95 -74 -266 -13 return
          </CharString>
          <CharString index="93">
            vlineto
            85 21 22 109 18 vhcurveto
            44 -78 callsubr
            return
          </CharString>
          <CharString index="94">
            1617 493 169 50 callsubr
            return
          </CharString>
          <CharString index="95">
            1151 rmoveto
            78 63 58 76 77 -63 58 -78 return
          </CharString>
          <CharString index="96">
            -227 139 -55 0 206 -281 return
          </CharString>
          <CharString index="97">
            -73 -58 -52 -69 -69 58 -52 73 hvcurveto
            endchar
          </CharString>
          <CharString index="98">
            1552 rmoveto
            98 73 70 188 return
          </CharString>
          <CharString index="99">
            -27 -50 -126 34 callgsubr
            return
          </CharString>
          <CharString index="100">
            1460 145 callsubr
            return
          </CharString>
          <CharString index="101">
            1668 88 721 rmoveto
            return
          </CharString>
          <CharString index="102">
            704 155 278 rmoveto
            return
          </CharString>
          <CharString index="103">
            -81 -46 102 247 245 return
          </CharString>
          <CharString index="104">
            rmoveto
            377 -1193 169 0 367 1178 356 -1178 171 0 368 1152 63 198 35 37 104 18 rlinecurve
            43 -389 -43 vlineto
            138 -21 14 -42 -52 -183 rrcurveto
            -247 -871 -255 909 -45 159 9 30 123 19 rlinecurve
            43 -574 -43 vlineto
            130 -22 16 -29 -47 -165 rrcurveto
            -252 -900 -261 903 -43 152 19 43 130 18 rlinecurve
            43 -611 -43 vlineto
            95 -15 40 -34 52 -163 rrcurveto
            endchar
          </CharString>
          <CharString index="105">
            rmoveto
            548 vlineto
            119 -1 416 -716 rlineto
            383 41 hlineto
            -66 23 -45 41 -127 219 rrcurveto
            -353 617 221 234 145 149 75 51 113 26 rlinecurve
            43 -421 -43 vlineto
            133 -17 4 -45 -111 -131 rrcurveto
            -368 -437 -118 -1 rlineto
            505 -14 callsubr
            -107 callsubr
            -54 callsubr
          </CharString>
          <CharString index="106">
            -161 -7 rcurveline
            1207 vlineto
            96 21 30 133 callsubr
            -107 callsubr
            vlineto
            return
          </CharString>
          <CharString index="107">
            rmoveto
            -434 -43 hlineto
            106 -22 28 -36 -105 vvcurveto
            -12 -975 -1 -162 -19 -39 -122 -19 rlinecurve
            -43 379 44 vlineto
            -126 17 return
          </CharString>
          <CharString index="108">
            rmoveto
            173 142 67 101 70 hvcurveto
            153 callsubr
            -309 222 -200 286 hvcurveto
            endchar
          </CharString>
          <CharString index="109">
            hvcurveto
            -33 12 rlineto
            15 -44 -43 11 -47 hhcurveto
            -97 -63 -66 -131 2 hvcurveto
            48 hlineto
            56 1 27 return
          </CharString>
          <CharString index="110">
            1832 rmoveto
            -227 -139 -11 callsubr
            94 callsubr
            return
          </CharString>
          <CharString index="111">
            1159 1105 hmoveto
            -15 callsubr
            -1 callsubr
            return
          </CharString>
          <CharString index="112">
            -455 344 -288 405 448 296 330 416 return
          </CharString>
          <CharString index="113">
            vlineto
            89 21 23 116 20 vhcurveto
            43 -576 26 callsubr
            return
          </CharString>
          <CharString index="114">
            52 0 -211 330 -135 0 -211 -330 rlineto
            endchar
          </CharString>
          <CharString index="115">
            1097 rmoveto
            370 359 rlineto
            8 -84 callsubr
            return
          </CharString>
          <CharString index="116">
            -56 0 227 -366 145 0 227 366 rlineto
            return
          </CharString>
          <CharString index="117">
            rmoveto
            72 59 52 69 69 -59 52 -72 79 callsubr
          </CharString>
          <CharString index="118">
            1464 rmoveto
            -257 -8 hlineto
            337 -359 rlineto
            return
          </CharString>
          <CharString index="119">
            1559 rmoveto
            67 53 50 64 65 -53 49 -67 return
          </CharString>
          <CharString index="120">
            1236 422 996 -89 callsubr
            return
          </CharString>
          <CharString index="121">
            15 -104 callgsubr
            3 callgsubr
            endchar
          </CharString>
          <CharString index="122">
            -40 hvcurveto
            -32 12 rlineto
            15 -44 -44 11 -46 hhcurveto
            -97 return
          </CharString>
          <CharString index="123">
            685 493 175 -85 callsubr
            return
          </CharString>
          <CharString index="124">
            326 hmoveto
            63 51 49 62 63 -51 47 -63 return
          </CharString>
          <CharString index="125">
            4 26 30 42 hhcurveto
            29 225 callsubr
            return
          </CharString>
          <CharString index="126">
            -44 vlineto
            100 -16 18 -20 -71 vvcurveto
            -683 vlineto
            return
          </CharString>
          <CharString index="127">
            1490 746 108 callsubr
            return
          </CharString>
          <CharString index="128">
            30 7 30 hhcurveto
            60 -85 callgsubr
            return
          </CharString>
          <CharString index="129">
            17 47 hhcurveto
            62 39 -8 callgsubr
            return
          </CharString>
          <CharString index="130">
            1474 rmoveto
            -111 -80 -59 -73 return
          </CharString>
          <CharString index="131">
            -161 -121 -76 -110 -53 vhcurveto
            return
          </CharString>
          <CharString index="132">
            64 50 49 62 63 -50 47 -64 -63 return
          </CharString>
          <CharString index="133">
            -43 vlineto
            117 -20 21 -23 -89 vvcurveto
            return
          </CharString>
          <CharString index="134">
            -78 -63 -58 -77 -76 63 -58 78 hvcurveto
            return
          </CharString>
          <CharString index="135">
            rmoveto
            -395 -47 0 -40 54 -17 rlineto
            return
          </CharString>
          <CharString index="136">
            rmoveto
            134 vlineto
            38 callsubr
            return
          </CharString>
          <CharString index="137">
            1460 146 callsubr
            return
          </CharString>
          <CharString index="138">
            1204 240 callsubr
            return
          </CharString>
          <CharString index="139">
            -151 0 -206 -281 rlineto
            return
          </CharString>
          <CharString index="140">
            315 hmoveto
            138 callsubr
            return
          </CharString>
          <CharString index="141">
            77 490 -93 callsubr
            return
          </CharString>
          <CharString index="142">
            -12 -61 vvcurveto
            57 callsubr
            return
          </CharString>
          <CharString index="143">
            -23 rlineto
            -38 55 46 -22 57 hhcurveto
            return
          </CharString>
          <CharString index="144">
            rmoveto
            548 121 -548 hlineto
            return
          </CharString>
          <CharString index="145">
            -561 -177 rlineto
            -38 vlineto
            return
          </CharString>
          <CharString index="146">
            93 118 329 vvcurveto
            endchar
          </CharString>
          <CharString index="147">
            rmoveto
            157 125 66 95 41 hvcurveto
            -102 19 93 -54 111 hhcurveto
            79 68 21 26 37 hvcurveto
            41 vlineto
            -4 -11 -14 -2 -16 hhcurveto
            -57 -43 36 85 hvcurveto
            491 vlineto
            223 -161 99 -257 -253 -168 -104 -133 -72 59 -53 72 73 58 55 71 66 -49 52 -61 7 vhcurveto
            26 48 59 15 64 hhcurveto
            153 92 -71 -186 hvcurveto
            -105 vlineto
            -199 -41 rlineto
            -293 -61 -112 -97 -149 vvcurveto
            -145 119 -96 167 vhcurveto
            -11 285 rmoveto
            118 61 74 184 43 vhcurveto
            84 18 rlineto
            -339 vlineto
            -59 -33 -58 -31 -76 hhcurveto
            -91 -71 63 113 hvcurveto
            return
          </CharString>
          <CharString index="148">
            rmoveto
            -133 -197 -46 -39 -102 -17 rrcurveto
            -43 394 43 vlineto
            -139 21 -3 41 107 177 rrcurveto
            220 357 254 -411 75 -121 -4 -42 -130 -22 rlinecurve
            -43 610 43 vlineto
            -91 25 -44 38 -80 132 rrcurveto
            -335 539 258 378 129 190 45 39 103 17 rlinecurve
            43 -393 -43 vlineto
            139 -21 3 -41 -106 -173 rrcurveto
            -208 -340 -242 390 -78 129 3 35 135 21 rlinecurve
            43 -604 -44 vlineto
            89 -24 39 -39 81 -131 321 -517 rcurveline
            endchar
          </CharString>
          <CharString index="149">
            rmoveto
            -403 275 -167 318 361 201 221 337 3 vhcurveto
            7 877 rlineto
            -4 22 24 -3 24 hhcurveto
            144 86 62 104 93 -70 88 -109 41 hvcurveto
            -43 hlineto
            21 -25 17 -53 -55 vvcurveto
            -121 -1 -88 -96 -184 hhcurveto
            -80 -44 hlineto
            140 -20 18 -25 -129 vvcurveto
            6 -681 rlineto
            -289 2 -154 -173 -242 hhcurveto
            -235 -162 145 324 hvcurveto
            713 vlineto
            92 21 23 137 21 vhcurveto
            43 -605 -43 vlineto
            124 -21 22 -23 -92 vvcurveto
            endchar
          </CharString>
          <CharString index="150">
            rmoveto
            -444 -43 hlineto
            105 -19 29 -37 -4 -104 rrcurveto
            -37 -985 -7 -157 -20 -38 -122 -18 rlinecurve
            -43 377 44 vlineto
            -124 19 -18 36 2 158 rrcurveto
            8 1019 466 -1276 140 0 87 290 356 983 32 -1100 3 -91 -24 -22 -113 -17 rlinecurve
            -43 572 43 vlineto
            -117 18 -18 22 -3 92 rrcurveto
            -36 1094 -2 89 23 25 113 18 rlinecurve
            43 vlineto
            -452 1 -371 -1117 rlineto
            endchar
          </CharString>
          <CharString index="151">
            rmoveto
            271 -230 145 -401 vhcurveto
            -579 -75 callsubr
            -107 callsubr
            -22 callsubr
            395 140 vlineto
            351 280 146 297 hvcurveto
            -319 -14 rmoveto
            -218 -122 -147 -250 -11 vhcurveto
            -80 -3 0 759 80 -3 rlineto
            257 -11 115 -152 -214 vvcurveto
            endchar
          </CharString>
          <CharString index="152">
            326 -182 241 -249 109 vhcurveto
            -8 39 44 -5 44 hhcurveto
            169 117 61 120 1 hvcurveto
            97 -75 88 -111 41 vhcurveto
            -44 hlineto
            22 -25 17 -55 -1 -54 rrcurveto
            -125 -87 -92 -163 vhcurveto
            -88 -89 23 -113 177 callsubr
            67 callsubr
            endchar
          </CharString>
          <CharString index="153">
            -18 8 -13 -61 vvcurveto
            -653 vlineto
            -68 -16 -20 -102 -16 vhcurveto
            -43 525 43 vlineto
            -113 18 -16 19 78 vvcurveto
            -1 551 rlineto
            45 47 103 29 100 hhcurveto
            51 50 -7 -8 25 hvcurveto
            11 19 11 37 37 vvcurveto
            76 -38 61 -83 -93 -83 -80 -178 -103 vhcurveto
            return
          </CharString>
          <CharString index="154">
            -183 220 148 125 74 115 78 callgsubr
            14 60 vvcurveto
            1307 vlineto
            -396 -45 0 -40 54 -17 rlineto
            56 -19 8 -12 -61 vvcurveto
            -417 vlineto
            75 -44 -97 49 -122 hhcurveto
            -253 -210 -195 -324 hvcurveto
            return
          </CharString>
          <CharString index="155">
            393 44 0 40 -53 16 rlineto
            -56 19 -7 13 61 vvcurveto
            814 vlineto
            -70 callsubr
            -596 vlineto
            -61 -35 -66 -42 -86 hhcurveto
            -124 -69 74 149 hvcurveto
            return
          </CharString>
          <CharString index="156">
            177 144 66 103 69 vhcurveto
            44 vlineto
            -54 -53 -84 -39 -104 hhcurveto
            -210 -149 162 265 -19 hvcurveto
            632 -77 callgsubr
            211 callsubr
            return
          </CharString>
          <CharString index="157">
            rmoveto
            542 632 -542 vlineto
            -86 -21 -21 -110 -19 vhcurveto
            -43 569 43 vlineto
            -116 20 -21 23 89 vvcurveto
            return
          </CharString>
          <CharString index="158">
            1145 rmoveto
            82 66 61 80 80 -66 61 -82 -82 -67 -61 -80 -80 67 -61 82 hvcurveto
            158 -149 rmoveto
            return
          </CharString>
          <CharString index="159">
            615 43 vlineto
            -102 18 -35 37 -56 157 rrcurveto
            -847 310 rmoveto
            208 623 213 -623 rlineto
            return
          </CharString>
          <CharString index="160">
            1562 rmoveto
            63 51 49 62 63 -51 47 -63 -58 callsubr
            325 hmoveto
            25 callsubr
            return
          </CharString>
          <CharString index="161">
            637 vlineto
            248 -13 0 82 -248 -14 rlineto
            239 -30 vlineto
            -364 -272 rlineto
            -35 117 vlineto
            return
          </CharString>
          <CharString index="162">
            -85 64 -115 -86 -60 -39 -45 -29 hvcurveto
            -38 vlineto
            8 227 callsubr
            -63 -54 236 callsubr
          </CharString>
          <CharString index="163">
            1239 95 callsubr
            47 callsubr
            288 27 rmoveto
            8 callgsubr
            return
          </CharString>
          <CharString index="164">
            -664 vlineto
            -308 -39 -131 -155 -136 vhcurveto
            25 -36 67 43 rlineto
            287 180 return
          </CharString>
          <CharString index="165">
            rmoveto
            -398 -47 0 -40 54 -17 rlineto
            59 -34 callgsubr
            195 callsubr
            endchar
          </CharString>
          <CharString index="166">
            1 -37 rlineto
            5 10 20 4 19 hhcurveto
            59 45 -28 -49 -49 -45 -29 -60 -47 -50 return
          </CharString>
          <CharString index="167">
            187 244 -187 55 0 -226 367 90 callsubr
            return
          </CharString>
          <CharString index="168">
            1097 rmoveto
            233 359 rlineto
            8 -246 vlineto
            -42 -367 rlineto
            return
          </CharString>
          <CharString index="169">
            rmoveto
            97 71 69 183 -9 hvcurveto
            -47 hlineto
            -89 -3 -26 -30 -43 hhcurveto
            return
          </CharString>
          <CharString index="170">
            rmoveto
            158 26 146 124 175 vvcurveto
            120 -66 82 return
          </CharString>
          <CharString index="171">
            1849 rmoveto
            561 -80 0 37 -561 177 rlineto
            return
          </CharString>
          <CharString index="172">
            -22 callgsubr
            -50 hlineto
            -99 -3 -28 -33 -46 hhcurveto
            -31 return
          </CharString>
          <CharString index="173">
            367 rmoveto
            -237 -8 hlineto
            244 -359 rlineto
            56 hlineto
            return
          </CharString>
          <CharString index="174">
            76 callgsubr
            -260 -161 290 406 vhcurveto
            return
          </CharString>
          <CharString index="175">
            -55 0 226 -366 146 0 226 366 rlineto
            return
          </CharString>
          <CharString index="176">
            1858 rmoveto
            -98 -70 -49 -60 -32 hvcurveto
            -34 vlineto
            23 return
          </CharString>
          <CharString index="177">
            163 57 60 59 73 vvcurveto
            74 -69 52 -99 vhcurveto
            return
          </CharString>
          <CharString index="178">
            -47 0 -40 55 -17 rlineto
            55 -19 8 -12 -61 vvcurveto
            return
          </CharString>
          <CharString index="179">
            -255 209 -36 0 -255 -209 rlineto
            return
          </CharString>
          <CharString index="180">
            1131 rmoveto
            196 100 145 145 20 return
          </CharString>
          <CharString index="181">
            576 43 vlineto
            -116 20 -21 23 89 vvcurveto
            return
          </CharString>
          <CharString index="182">
            -19 -20 vvcurveto
            -145 100 -145 196 vhcurveto
            return
          </CharString>
          <CharString index="183">
            1532 rmoveto
            54 -95 callgsubr
            return
          </CharString>
          <CharString index="184">
            227 -139 55 0 -206 281 return
          </CharString>
          <CharString index="185">
            89 21 23 117 20 vhcurveto
            43 -569 return
          </CharString>
          <CharString index="186">
            -73 -59 -52 -69 -69 59 -52 73 hvcurveto
            endchar
          </CharString>
          <CharString index="187">
            hlineto
            -148 -8 114 -93 167 hhcurveto
            return
          </CharString>
          <CharString index="188">
            hlineto
            -56 -44 -41 -57 -55 44 -41 56 hvcurveto
            return
          </CharString>
          <CharString index="189">
            -61 callsubr
            226 -139 return
          </CharString>
          <CharString index="190">
            43 vlineto
            -127 18 -21 30 99 vvcurveto
            return
          </CharString>
          <CharString index="191">
            15 20 -26 hvcurveto
            -1 -42 rlineto
            -52 33 return
          </CharString>
          <CharString index="192">
            -73 -70 -188 9 hvcurveto
            50 hlineto
            89 return
          </CharString>
          <CharString index="193">
            -26 callsubr
            435 hmoveto
            74 return
          </CharString>
          <CharString index="194">
            vlineto
            -86 -20 -21 -110 -19 vhcurveto
            -43 return
          </CharString>
          <CharString index="195">
            vlineto
            -89 -20 -23 -117 -20 vhcurveto
            -43 return
          </CharString>
          <CharString index="196">
            -450 -294 -329 -416 return
          </CharString>
          <CharString index="197">
            -146 0 -226 -367 rlineto
            return
          </CharString>
          <CharString index="198">
            -145 0 -227 -367 rlineto
            return
          </CharString>
          <CharString index="199">
            610 -19 -101 callsubr
            return
          </CharString>
          <CharString index="200">
            151 0 206 281 rlineto
            return
          </CharString>
          <CharString index="201">
            150 0 206 281 rlineto
            return
          </CharString>
          <CharString index="202">
            77 483 rmoveto
            -319 185 return
          </CharString>
          <CharString index="203">
            72 103 vhcurveto
            5 -50 vlineto
            -3 -18 return
          </CharString>
          <CharString index="204">
            -41 hhcurveto
            -30 99 callgsubr
            return
          </CharString>
          <CharString index="205">
            -42 -35 -47 -48 42 -34 53 hvcurveto
            return
          </CharString>
          <CharString index="206">
            -76 -204 10 hvcurveto
            50 hlineto
            99 return
          </CharString>
          <CharString index="207">
            -86 64 -115 -85 -61 -39 -45 return
          </CharString>
          <CharString index="208">
            -90 -127 -127 -17 1 -18 return
          </CharString>
          <CharString index="209">
            rmoveto
            302 242 166 273 209 -123 146 -254 88 hvcurveto
            -120 42 rlineto
            -172 61 -93 78 134 vvcurveto
            135 96 95 179 183 132 -134 -228 51 vhcurveto
            41 hlineto
            -10 333 rlineto
            49 -70 -140 41 -187 hhcurveto
            -315 -224 -151 -262 -205 132 -143 243 -82 hvcurveto
            121 -42 rlineto
            185 -65 81 -88 -135 vvcurveto
            -153 -114 -101 -169 -205 -177 143 265 -57 vhcurveto
            -41 hlineto
            14 -366 rlineto
            -58 95 168 -45 206 hhcurveto
            return
          </CharString>
          <CharString index="210">
            rmoveto
            -239 354 181 245 83 117 37 29 87 19 rlinecurve
            44 -339 -44 vlineto
            108 -16 14 -24 -67 -110 rrcurveto
            -137 -210 -141 209 -68 107 12 33 113 11 rlinecurve
            44 -527 -44 vlineto
            63 -13 34 -27 60 -90 rrcurveto
            236 -350 -181 -244 -87 -122 -37 -29 -92 -22 rlinecurve
            -43 344 43 vlineto
            -102 16 -19 27 69 113 rrcurveto
            138 212 143 -212 71 -112 -14 -32 -112 -12 rlinecurve
            -43 530 43 vlineto
            -64 15 -36 27 -61 91 rrcurveto
            endchar
          </CharString>
          <CharString index="211">
            rmoveto
            -156 110 -90 180 -58 vhcurveto
            80 -26 rlineto
            121 -39 54 -50 -85 vvcurveto
            -88 -74 -64 -119 -142 -135 111 186 -39 vhcurveto
            -41 hlineto
            10 -277 rlineto
            -45 71 136 -34 144 hhcurveto
            234 193 113 196 163 -100 96 -185 59 hvcurveto
            -81 26 rlineto
            -116 38 -64 42 84 vvcurveto
            85 68 59 121 130 99 -92 -165 35 vhcurveto
            41 hlineto
            -5 256 rlineto
            31 -51 -110 29 -142 hhcurveto
            -254 -169 -112 -193 hvcurveto
            return
          </CharString>
          <CharString index="212">
            319 -185 182 -219 -148 -125 -72 -114 -50 vhcurveto
            2 675 -395 -47 0 -40 54 -17 rlineto
            55 -19 7 -12 -61 vvcurveto
            -1295 140 vlineto
            115 126 rlineto
            -84 42 105 -61 135 hhcurveto
            256 211 195 325 hvcurveto
            -287 -28 rmoveto
            -256 -106 -154 -157 -80 -68 44 54 -27 vhcurveto
            616 vlineto
            66 36 64 39 87 hhcurveto
            147 104 -152 -257 hvcurveto
            return
          </CharString>
          <CharString index="213">
            rmoveto
            -96 -82 -41 -45 -41 hvcurveto
            234 callsubr
            -61 -6 -241 -65 vvcurveto
            -239 135 -149 244 258 209 228 362 271 -89 160 -134 -101 -62 -94 -122 30 vhcurveto
            153 -32 96 -151 -187 vvcurveto
            -200 -99 -107 -143 -142 -76 98 183 vhcurveto
            71 7 225 48 vvcurveto
            178 -72 85 -143 vhcurveto
            endchar
          </CharString>
          <CharString index="214">
            1667 834 -23 rmoveto
            409 337 336 410 410 -337 336 -409 -410 -336 -336 -410 -410 336 -336 410 hvcurveto
            42 vmoveto
            -384 -316 317 387 387 316 317 384 383 316 -317 -387 -387 -316 -317 -383 hvcurveto
            return
          </CharString>
          <CharString index="215">
            rmoveto
            452 -355 246 -528 vhcurveto
            -553 -75 callsubr
            -107 callsubr
            -30 callgsubr
            -333 -21 130 callsubr
            185 callsubr
            return
          </CharString>
          <CharString index="216">
            rmoveto
            230 -200 124 -295 13 vhcurveto
            227 14 204 104 201 vvcurveto
            228 -229 115 -371 vhcurveto
            -590 -75 callsubr
            -107 callsubr
            200 callsubr
            endchar
          </CharString>
          <CharString index="217">
            rmoveto
            11 -717 rlineto
            -198 3 98 -88 159 hhcurveto
            121 102 59 78 52 hvcurveto
            43 vlineto
            -22 -29 -42 -16 -56 hhcurveto
            -94 -58 57 122 2 hvcurveto
            80 11 432 8 170 vhcurveto
            endchar
          </CharString>
          <CharString index="218">
            -41 -35 -47 -48 41 -34 53 hvcurveto
            315 hmoveto
            54 41 34 48 47 -41 35 -54 hvcurveto
            -8 hlineto
            -53 98 callsubr
            endchar
          </CharString>
          <CharString index="219">
            vlineto
            113 callgsubr
            -37 callsubr
            -99 callsubr
            endchar
          </CharString>
          <CharString index="220">
            -981 vlineto
            -355 -68 -160 -208 -136 vhcurveto
            18 -38 rlineto
            360 150 199 161 353 vvcurveto
            endchar
          </CharString>
          <CharString index="221">
            1 -37 rlineto
            5 10 21 4 19 hhcurveto
            59 45 -28 -49 -49 -45 -29 -61 -47 -49 84 callsubr
            78 -37 93 hhcurveto
            return
          </CharString>
          <CharString index="222">
            rmoveto
            156 143 80 150 111 -85 85 -134 14 hvcurveto
            118 16 78 61 86 vvcurveto
            96 -90 64 return
          </CharString>
          <CharString index="223">
            100 -16 18 -20 -71 vvcurveto
            -683 vlineto
            -37 callsubr
            return
          </CharString>
          <CharString index="224">
            -46 -44 10 -49 hhcurveto
            -99 -64 -57 -111 2 hvcurveto
            49 hlineto
            48 1 28 19 49 hhcurveto
            29 30 return
          </CharString>
          <CharString index="225">
            56 44 41 56 56 -44 41 -56 hvcurveto
            -8 hlineto
            -56 -44 -41 -56 -56 44 -41 56 hvcurveto
            return
          </CharString>
          <CharString index="226">
            1488 163 1274 rmoveto
            -21 callgsubr
            219 callsubr
            return
          </CharString>
          <CharString index="227">
            1151 rmoveto
            79 63 58 76 77 -63 58 -79 27 callsubr
            return
          </CharString>
          <CharString index="228">
            1151 rmoveto
            78 64 58 76 77 -64 58 -78 27 callsubr
            return
          </CharString>
          <CharString index="229">
            1151 rmoveto
            104 77 77 203 -10 hvcurveto
            -50 hlineto
            -99 -4 return
          </CharString>
          <CharString index="230">
            -54 -50 18 25 -31 vhcurveto
            -41 vlineto
            -50 35 78 -38 92 hhcurveto
            endchar
          </CharString>
          <CharString index="231">
            -126 -93 40 61 -6 hvcurveto
            -48 80 callsubr
            endchar
          </CharString>
          <CharString index="232">
            119 109 63 114 108 -7 callgsubr
            return
          </CharString>
          <CharString index="233">
            18 25 -30 vhcurveto
            -1 -41 rlineto
            -50 35 78 -38 92 hhcurveto
            endchar
          </CharString>
          <CharString index="234">
            rmoveto
            227 169 227 -169 -53 callgsubr
          </CharString>
          <CharString index="235">
            1559 rmoveto
            66 54 50 64 65 -54 49 -66 -67 return
          </CharString>
          <CharString index="236">
            -693 rmoveto
            85 hlineto
            849 1444 rlineto
            -85 hlineto
            return
          </CharString>
          <CharString index="237">
            rmoveto
            -408 -216 -253 -367 -11 vhcurveto
            -81 -3 return
          </CharString>
          <CharString index="238">
            1378 rmoveto
            118 callsubr
            332 hmoveto
            return
          </CharString>
          <CharString index="239">
            168 161 113 119 -113 459 return
          </CharString>
          <CharString index="240">
            128 18 vhcurveto
            43 -588 26 callsubr
            return
          </CharString>
          <CharString index="241">
            -1 -17 -18 vvcurveto
            -127 91 -127 174 vhcurveto
            return
          </CharString>
          <CharString index="242">
            1828 -15 callgsubr
            -460 vmoveto
            return
          </CharString>
          <CharString index="243">
            1163 820 hmoveto
            152 callsubr
            return
          </CharString>
          <CharString index="244">
            -47 callgsubr
            -261 -177 rlineto
            endchar
          </CharString>
          <CharString index="245">
            53 42 34 48 47 -42 35 -53 hvcurveto
            -8 hlineto
            return
          </CharString>
          <CharString index="246">
            41 hvcurveto
            34 -10 rlineto
            -13 45 44 -10 48 hhcurveto
            return
          </CharString>
          <CharString index="247">
            41 hvcurveto
            34 -10 rlineto
            -13 45 43 -10 49 hhcurveto
            return
          </CharString>
          <CharString index="248">
            25 -13 -27 39 hvcurveto
            31 36 callsubr
            return
          </CharString>
          <CharString index="249">
            17 17 vvcurveto
            127 -92 127 -173 vhcurveto
            return
          </CharString>
          <CharString index="250">
            3 28 33 46 hhcurveto
            31 25 -13 -27 39 hvcurveto
            return
          </CharString>
          <CharString index="251">
            2 -15 hvcurveto
            47 4 hlineto
            93 90 64 124 return
          </CharString>
          <CharString index="252">
            rmoveto
            546 -95 0 44 -546 208 rlineto
            return
          </CharString>
          <CharString index="253">
            rmoveto
            157 vlineto
            -546 -208 rlineto
            -44 vlineto
            return
          </CharString>
          <CharString index="254">
            rmoveto
            189 140 100 196 18 hvcurveto
            -190 66 186 -106 199 hhcurveto
            174 141 71 95 69 hvcurveto
            43 vlineto
            -52 -52 -83 -37 -103 hhcurveto
            -206 -149 163 268 -19 hvcurveto
            623 hlineto
            2 17 1 24 23 vvcurveto
            240 -155 166 -260 -132 -114 -51 -84 -72 vhcurveto
            92 -55 -125 43 -146 hhcurveto
            -236 -157 -104 -126 -70 56 -53 71 76 57 54 71 63 -47 49 -60 8 hvcurveto
            25 46 59 15 66 hhcurveto
            148 106 -83 -200 hvcurveto
            -75 vlineto
            -197 -35 rlineto
            -298 -53 -117 -112 -154 vvcurveto
            -152 121 -89 169 vhcurveto
            568 609 rmoveto
            228 82 125 128 117 51 -121 -178 -22 0 -19 -1 -16 vhcurveto
            -377 -4 rlineto
            2 0 3 2 vvcurveto
            -433 -496 rmoveto
            -90 -62 63 111 120 67 80 173 38 hvcurveto
            99 20 rlineto
            -186 vlineto
            -177 -88 -69 -99 vhcurveto
            endchar
          </CharString>
          <CharString index="255">
            rmoveto
            -979 hlineto
            -578 -1142 -104 -207 -46 -34 -100 -18 rlinecurve
            -43 400 43 vlineto
            -131 20 -23 44 93 192 rrcurveto
            158 330 434 0 4 -460 rlineto
            -86 -21 -21 -109 -19 vhcurveto
            -43 1052 vlineto
            15 410 rlineto
            -41 hlineto
            -57 -273 -79 -63 -280 -14 rrcurveto
            -198 -10 -5 664 203 -5 125 -5 28 -51 29 -151 rlinecurve
            38 hlineto
            -2 474 rlineto
            -39 hlineto
            -29 -151 -27 -50 -124 -5 rrcurveto
            -202 -6 -4 630 166 -8 268 -14 83 -65 56 -235 rlinecurve
            42 hlineto
            -957 320 rmoveto
            60 hlineto
            5 -702 rlineto
            -404 hlineto
            endchar
          </CharString>
          <CharString index="256">
            rmoveto
            237 -1 -196 151 -404 hhcurveto
            -589 -43 hlineto
            117 -18 21 -23 -91 vvcurveto
            -1094 vlineto
            -87 -21 -23 -117 -22 vhcurveto
            -43 569 43 vlineto
            -109 20 -21 22 84 vvcurveto
            491 182 vlineto
            327 -660 rlineto
            363 41 hlineto
            -57 19 -42 38 -106 205 -205 416 rcurveline
            173 45 116 123 169 vvcurveto
            -304 -17 rmoveto
            -206 -133 -112 -206 -7 vhcurveto
            -108 -5 0 685 88 -3 rlineto
            253 -10 106 -145 -197 vvcurveto
            return
          </CharString>
          <CharString index="257">
            rmoveto
            316 -186 185 -219 -151 -122 -77 -112 -49 vhcurveto
            183 vlineto
            -393 -47 0 -40 54 -17 rlineto
            55 -18 8 -13 -61 vvcurveto
            -1113 vlineto
            -68 -15 -20 -102 -16 vhcurveto
            -43 525 43 vlineto
            -113 18 -17 19 78 vvcurveto
            407 vlineto
            -73 42 99 -51 119 hhcurveto
            254 211 197 323 hvcurveto
            -287 -28 rmoveto
            -251 -104 -159 -158 -80 -70 42 56 -26 vhcurveto
            615 vlineto
            67 36 63 39 87 hhcurveto
            149 103 -158 -251 hvcurveto
            endchar
          </CharString>
          <CharString index="258">
            1407 493 169 rmoveto
            548 vlineto
            119 -1 416 -716 rlineto
            383 41 hlineto
            -66 23 -45 41 -127 219 rrcurveto
            -353 617 221 234 145 149 75 51 113 26 rlinecurve
            43 -421 -43 vlineto
            133 -17 4 -45 -111 -131 rrcurveto
            -368 -437 -118 -1 rlineto
            505 -14 callsubr
            -107 callsubr
            -47 callsubr
            return
          </CharString>
          <CharString index="259">
            354 41 hlineto
            -60 17 -45 38 -88 160 rrcurveto
            -245 430 79 74 140 123 59 33 107 24 rlinecurve
            44 -397 -44 vlineto
            116 -21 7 -43 -85 -90 rrcurveto
            -224 -240 -95 -3 0 948 -70 callsubr
            -52 callsubr
            -99 callsubr
            347 vlineto
            97 -2 rlineto
            return
          </CharString>
          <CharString index="260">
            43 vlineto
            -51 -53 -86 -37 -103 hhcurveto
            -201 -161 162 277 232 123 154 190 64 54 -17 -30 41 hvcurveto
            1 -4 -4 0 -3 hhcurveto
            -69 -56 -57 -72 -72 57 -57 74 71 59 56 78 132 -126 111 -229 -306 -225 -213 -299 return
          </CharString>
          <CharString index="261">
            -879 -708 37 callgsubr
            995 -749 rmoveto
            184 145 142 240 237 -146 145 -181 -185 -144 -142 -240 -237 145 -145 182 hvcurveto
            return
          </CharString>
          <CharString index="262">
            -310 231 -198 302 hvcurveto
            7 59 rmoveto
            -148 -95 178 282 272 84 171 151 146 95 -177 -282 -273 -84 -171 -149 hvcurveto
            return
          </CharString>
          <CharString index="263">
            -143 hhcurveto
            -146 -94 -75 -124 -34 hvcurveto
            28 -13 rlineto
            64 25 53 43 75 hhcurveto
            81 51 -51 -78 -89 -51 -78 -141 -140 hvcurveto
            -113 -105 rlineto
            -104 vlineto
            endchar
          </CharString>
          <CharString index="264">
            -49 -60 -59 46 -45 56 8 7 0 2 7 hvcurveto
            -48 -43 -73 -33 -91 hhcurveto
            -91 -73 33 48 -44 hvcurveto
            -2 8 7 0 8 hhcurveto
            56 46 45 59 60 -46 49 -62 -64 return
          </CharString>
          <CharString index="265">
            -28 -19 -49 hhcurveto
            -29 -29 7 12 -41 hvcurveto
            -34 11 rlineto
            12 -46 -43 10 -49 hhcurveto
            -99 -65 -57 -48 callgsubr
            -7 -12 139 callsubr
            endchar
          </CharString>
          <CharString index="266">
            1291 rmoveto
            -115 120 -72 153 153 120 71 117 113 -120 73 -153 -153 -120 -73 -114 vhcurveto
            return
          </CharString>
          <CharString index="267">
            15 -12 18 68 vvcurveto
            635 vlineto
            61 34 62 42 90 hhcurveto
            118 66 -72 -147 hvcurveto
            -519 vlineto
            -68 -12 196 callsubr
            endchar
          </CharString>
          <CharString index="268">
            1813 rmoveto
            -254 -5 hlineto
            315 -276 rlineto
            59 hlineto
            225 281 rmoveto
            -234 -5 hlineto
            224 -276 rlineto
            55 hlineto
            return
          </CharString>
          <CharString index="269">
            1575 rmoveto
            173 -70 callgsubr
            -84 callgsubr
            -125 -124 -90 64 92 vhcurveto
            4 -47 vlineto
            -2 -15 return
          </CharString>
          <CharString index="270">
            568 43 vlineto
            -115 20 -22 23 89 vvcurveto
            1094 vlineto
            90 22 22 115 20 vhcurveto
            43 -568 -82 callgsubr
            return
          </CharString>
          <CharString index="271">
            1592 rmoveto
            -82 -58 -40 -46 -33 hvcurveto
            -36 vlineto
            16 21 40 13 44 -63 callgsubr
            70 54 callgsubr
            return
          </CharString>
          <CharString index="272">
            -102 17 -15 19 71 vvcurveto
            683 vlineto
            71 15 19 102 17 vhcurveto
            44 -501 -44 vlineto
            93 -14 13 -18 -68 vvcurveto
            return
          </CharString>
          <CharString index="273">
            -130 -94 65 93 vhcurveto
            4 -47 vlineto
            -3 -16 -1 -17 -18 vvcurveto
            -130 93 -131 182 vhcurveto
            endchar
          </CharString>
          <CharString index="274">
            -124 -91 64 92 vhcurveto
            4 -46 vlineto
            -3 -15 -1 -17 -18 vvcurveto
            -127 92 -127 173 vhcurveto
            return
          </CharString>
          <CharString index="275">
            1 408 rlineto
            247 54 -247 hlineto
            1 211 -278 -33 rlineto
            -178 -119 vlineto
            endchar
          </CharString>
          <CharString index="276">
            1559 rmoveto
            67 54 50 64 65 -54 49 -67 -66 -54 -49 -65 -64 54 -50 66 hvcurveto
            return
          </CharString>
          <CharString index="277">
            1097 rmoveto
            198 359 rlineto
            8 -234 vlineto
            -15 -367 rlineto
            -189 48 rmoveto
            67 return
          </CharString>
          <CharString index="278">
            19 rlineto
            35 -52 -42 20 -54 hhcurveto
            -96 -71 -69 -183 9 hvcurveto
            47 hlineto
            89 3 26 30 return
          </CharString>
          <CharString index="279">
            -139 -102 96 callsubr
            -1 -19 -20 vvcurveto
            -145 99 -145 196 vhcurveto
            return
          </CharString>
          <CharString index="280">
            437 rmoveto
            272 -229 151 -371 vhcurveto
            -171 394 hlineto
            99 21 30 return
          </CharString>
          <CharString index="281">
            53 42 35 47 48 -42 35 -53 hvcurveto
            -8 hlineto
            -53 -42 -35 -48 -47 42 -35 53 hvcurveto
            return
          </CharString>
          <CharString index="282">
            -21 -84 vvcurveto
            -1222 -519 1222 vlineto
            84 21 21 109 18 vhcurveto
            44 return
          </CharString>
          <CharString index="283">
            hlineto
            -39 -215 -67 -55 -187 -10 rrcurveto
            -192 -7 521 895 rlineto
            40 vlineto
            return
          </CharString>
          <CharString index="284">
            hhcurveto
            89 callsubr
            hvcurveto
            334 14 rmoveto
            392 117 278 287 return
          </CharString>
          <CharString index="285">
            84 68 69 84 85 -68 67 -84 -84 -68 -67 -85 -84 68 -69 84 hvcurveto
            endchar
          </CharString>
          <CharString index="286">
            74 70 188 -10 hvcurveto
            -49 hlineto
            -89 -4 -26 -29 -42 hhcurveto
            -29 -24 11 24 return
          </CharString>
          <CharString index="287">
            1131 rmoveto
            196 99 145 145 20 -1 -86 callgsubr
            return
          </CharString>
          <CharString index="288">
            1097 rmoveto
            370 359 rlineto
            8 -284 vlineto
            -141 -367 rlineto
            return
          </CharString>
          <CharString index="289">
            94 67 105 105 -85 64 -115 -86 -60 -39 -45 -29 hvcurveto
            -38 vlineto
            8 return
          </CharString>
          <CharString index="290">
            82 67 61 80 80 -67 61 -82 -82 -66 -61 -80 -80 66 -61 82 hvcurveto
            return
          </CharString>
          <CharString index="291">
            50 4 hlineto
            104 101 71 140 140 101 -72 -103 vhcurveto
            -4 50 vlineto
            return
          </CharString>
          <CharString index="292">
            0 1344 81 -3 373 -11 211 -264 -1 -391 rlinecurve
            return
          </CharString>
          <CharString index="293">
            -226 85 -185 135 -129 vhcurveto
            -129 -143 42 -40 130 145 rlineto
            -106 132 171 -59 183 hhcurveto
            448 296 330 416 226 -86 185 -135 128 hvcurveto
            129 143 -42 40 -130 -145 rlineto
            106 -132 -171 59 -182 177 callsubr
            153 119 -101 -166 72 vhcurveto
            -694 -771 rlineto
            -35 105 -19 125 138 vvcurveto
            824 -25 rmoveto
            -392 -117 -279 -286 -154 -119 101 167 -72 vhcurveto
            695 770 rlineto
            35 -104 18 -125 -138 vvcurveto
            endchar
          </CharString>
          <CharString index="294">
            rmoveto
            302 232 210 303 150 -54 124 -91 87 hvcurveto
            92 97 -40 38 -93 -99 rlineto
            70 -92 -118 39 -133 hhcurveto
            -301 -233 -209 -303 -152 56 -125 92 -88 hvcurveto
            -87 -92 39 -38 89 95 rlineto
            -69 91 118 -38 131 hhcurveto
            -239 519 rmoveto
            272 86 171 152 95 74 -72 -126 41 vhcurveto
            -427 -451 rlineto
            -14 60 -7 69 77 vvcurveto
            245 -461 rmoveto
            -94 -72 71 123 -42 hvcurveto
            427 450 rlineto
            13 -59 7 -67 -74 vvcurveto
            -273 -86 -171 -153 vhcurveto
            endchar
          </CharString>
          <CharString index="295">
            rmoveto
            -276 140 -160 194 176 112 139 165 41 vhcurveto
            28 -173 106 -132 192 1 rrcurveto
            228 170 230 324 280 -113 186 -141 -108 -62 -102 -122 43 hvcurveto
            159 -33 118 -157 -201 vvcurveto
            -167 -73 -99 -120 -135 -80 123 278 vhcurveto
            207 -245 -208 vlineto
            -295 -61 -103 -110 -110 -62 116 218 230 68 193 132 92 vhcurveto
            -27 30 rlineto
            -287 -67 -173 -232 -285 vvcurveto
            endchar
          </CharString>
          <CharString index="296">
            rmoveto
            156 95 93 187 97 hvcurveto
            -196 44 70 -78 129 hhcurveto
            88 75 45 63 45 hvcurveto
            40 vlineto
            -12 -17 -23 -8 -24 hhcurveto
            -67 -49 49 245 -67 hvcurveto
            -20 73 232 502 rlineto
            -259 hlineto
            -20 -96 -26 -105 -28 -105 rrcurveto
            210 -69 -105 114 -197 hhcurveto
            -259 -171 -221 -296 -330 177 -174 193 hvcurveto
            -77 531 rmoveto
            266 64 159 110 101 46 -101 -236 42 vhcurveto
            44 -249 rlineto
            -169 -60 -65 -86 -94 hhcurveto
            -117 -71 156 260 hvcurveto
            endchar
          </CharString>
          <CharString index="297">
            rmoveto
            237 163 100 143 79 hvcurveto
            43 vlineto
            -68 -66 -126 -48 -142 -1 rrcurveto
            -152 -1 -100 55 95 vvcurveto
            96 91 57 187 vhcurveto
            83 hlineto
            -38 176 rlineto
            -47 hlineto
            -205 -90 57 100 89 79 65 160 88 76 -15 -31 54 hvcurveto
            -53 -5 -48 -44 -65 vvcurveto
            -59 44 -55 75 62 54 50 69 121 -122 95 -275 -295 -146 -120 -159 -149 131 -95 212 -8 vhcurveto
            -241 -8 -125 -86 -136 vvcurveto
            -160 159 -100 239 vhcurveto
            endchar
          </CharString>
          <CharString index="298">
            rmoveto
            -85 71 -66 93 158 95 122 259 132 vhcurveto
            432 853 72 143 31 25 114 21 rlinecurve
            43 -396 -43 vlineto
            158 -21 13 -22 -68 -146 rrcurveto
            -289 -607 -319 630 -64 126 4 23 151 17 rlinecurve
            43 -617 -43 vlineto
            105 -19 30 -25 62 -116 rrcurveto
            493 -928 -62 -120 -52 -80 -61 -44 rlinecurve
            7 17 4 19 21 vvcurveto
            83 -66 69 -82 -83 -66 -67 -82 vhcurveto
            endchar
          </CharString>
          <CharString index="299">
            222 -118 163 -172 68 hvcurveto
            -10 45 52 -7 54 hhcurveto
            158 107 61 107 1 hvcurveto
            93 -73 86 -110 41 vhcurveto
            -43 hlineto
            21 -25 17 -54 -54 vvcurveto
            -117 -89 -84 -160 vhcurveto
            -72 -63 17 -98 hhcurveto
            -297 -231 -213 -300 -310 225 -198 308 hvcurveto
            7 59 rmoveto
            -153 -90 179 280 274 80 170 155 151 90 -178 -281 -274 -80 -170 -153 hvcurveto
            return
          </CharString>
          <CharString index="300">
            rmoveto
            96 77 48 65 30 hvcurveto
            -1 42 rlineto
            -17 -14 -26 -11 -31 hhcurveto
            -76 -63 97 124 40 8 41 14 33 hvcurveto
            281 20 210 205 287 vvcurveto
            -105 callsubr
            -307 226 -197 298 -4 vhcurveto
            -99 -82 -55 -94 -97 vvcurveto
            -114 89 -73 107 vhcurveto
            -26 519 rmoveto
            -148 -95 178 282 272 84 171 151 146 95 -177 -282 -273 -84 -171 -149 hvcurveto
            endchar
          </CharString>
          <CharString index="301">
            rmoveto
            91 70 36 53 22 hvcurveto
            -57 11 59 -29 65 hhcurveto
            48 43 12 16 23 hvcurveto
            29 vlineto
            -1 24 callgsubr
            -43 35 -31 47 45 36 34 43 33 -21 28 -30 10 vhcurveto
            7 21 25 5 25 hhcurveto
            84 47 -37 -92 hvcurveto
            -49 vlineto
            -108 -22 rlineto
            -166 -32 -63 -54 -77 vvcurveto
            -74 65 -51 94 vhcurveto
            21 154 rmoveto
            57 32 37 88 20 vhcurveto
            37 7 rlineto
            -162 vlineto
            -27 -14 -28 -14 -37 hhcurveto
            -44 -34 29 53 hvcurveto
            endchar
          </CharString>
          <CharString index="302">
            193 161 118 76 110 53 vhcurveto
            -178 vlineto
            401 44 0 40 -59 17 rlineto
            -58 18 -8 13 61 vvcurveto
            771 vlineto
            -3 15 18 -1 18 hhcurveto
            106 83 52 98 93 -76 88 -114 38 hvcurveto
            -43 hlineto
            20 -24 18 -51 -56 vvcurveto
            -124 -90 -82 -242 -22 vhcurveto
            -112 -11 0 -39 55 -17 rlineto
            58 -19 8 -12 -61 vvcurveto
            -596 vlineto
            -61 -35 -65 -42 -87 hhcurveto
            -124 -69 74 149 hvcurveto
            return
          </CharString>
          <CharString index="303">
            -18 -93 -15 vhcurveto
            -43 488 43 vlineto
            -92 15 -13 18 68 vvcurveto
            561 vlineto
            29 -3 26 -4 25 vhcurveto
            60 35 66 37 89 hhcurveto
            119 67 -72 -147 hvcurveto
            -519 vlineto
            -68 -12 -17 -93 -16 vhcurveto
            -43 501 43 vlineto
            -100 17 -18 19 71 vvcurveto
            540 vlineto
            209 -131 103 -194 -158 -126 -77 -110 -52 vhcurveto
            121 -37 -116 66 -154 hhcurveto
            -160 -119 -77 -109 -51 hvcurveto
            return
          </CharString>
          <CharString index="304">
            287 hlineto
            57 -7 703 -1 vvcurveto
            70 25 64 43 90 hhcurveto
            129 66 -78 -220 -264 -5 -325 -11 -445 hvcurveto
            288 hlineto
            -5 1074 rlineto
            290 -1 -138 98 -197 hhcurveto
            -165 -115 -85 -115 -34 hvcurveto
            124 -11 -73 71 -119 hhcurveto
            -89 -76 -39 -47 -42 hvcurveto
            -43 vlineto
            9 11 19 6 24 hhcurveto
            70 37 -44 -129 -1 hvcurveto
            -92 -13 -435 -8 -183 vhcurveto
            endchar
          </CharString>
          <CharString index="305">
            -448 334 -287 397 -8 vhcurveto
            -100 -72 -65 -96 -101 vvcurveto
            -112 86 -76 115 92 callgsubr
            -61 81 107 54 12 49 21 35 hvcurveto
            427 18 279 323 404 vvcurveto
            455 -346 287 -403 89 callsubr
            vhcurveto
            334 14 rmoveto
            392 117 278 287 76 callgsubr
            -261 -160 290 406 vhcurveto
            endchar
          </CharString>
          <CharString index="306">
            rmoveto
            757 vlineto
            245 -13 0 82 -245 -13 rlineto
            246 vlineto
            154 52 61 87 14 13 -1 -3 12 vhcurveto
            -42 -12 -32 -39 -49 vvcurveto
            -61 47 -46 61 58 48 46 61 96 -80 75 -165 -202 -148 -126 -246 vhcurveto
            -145 vlineto
            -118 -45 rlineto
            -35 117 -755 vlineto
            -68 -16 -20 -101 -16 vhcurveto
            -43 525 43 vlineto
            -114 18 -16 19 78 vvcurveto
            endchar
          </CharString>
          <CharString index="307">
            590 vlineto
            343 321 129 286 hvcurveto
            -371 666 rmoveto
            -191 -107 -98 -188 -2 vhcurveto
            -149 -1 0 605 93 -4 rlineto
            251 -7 100 -125 -177 vvcurveto
            52 -680 rmoveto
            -216 -145 -123 -258 -8 vhcurveto
            -93 -4 0 688 149 -2 rlineto
            224 -3 123 -137 -195 vvcurveto
            return
          </CharString>
          <CharString index="308">
            rmoveto
            187 -147 105 -303 vhcurveto
            -155 229 hlineto
            78 16 19 113 17 vhcurveto
            44 -525 19 callsubr
            -37 callsubr
            565 vlineto
            266 170 118 187 hvcurveto
            -515 238 rmoveto
            158 -6 75 -94 -148 vvcurveto
            -146 -92 -88 -142 -7 vhcurveto
            -89 -3 rlineto
            494 vlineto
            endchar
          </CharString>
          <CharString index="309">
            71 18 20 100 16 vhcurveto
            44 -498 -44 vlineto
            91 -15 12 -17 -68 vvcurveto
            -787 -343 787 vlineto
            68 12 18 91 14 vhcurveto
            44 -484 -44 vlineto
            91 -14 12 -18 -68 vvcurveto
            -787 -342 787 vlineto
            68 12 17 90 15 vhcurveto
            44 -498 19 callsubr
            -70 -18 -20 -100 -17 vhcurveto
            -43 return
          </CharString>
          <CharString index="310">
            rmoveto
            293 228 202 311 315 -213 193 -305 -296 -228 -201 -312 -314 214 -194 307 hvcurveto
            5 59 rmoveto
            -148 -82 186 276 272 75 169 149 143 83 -185 -276 -273 -75 -169 -145 hvcurveto
            endchar
          </CharString>
          <CharString index="311">
            427 -1193 177 0 417 1152 71 198 33 37 104 18 rlinecurve
            43 -391 -43 vlineto
            140 -21 18 -44 -60 -183 rrcurveto
            -298 -898 -315 928 -53 156 24 44 128 18 rlinecurve
            43 -615 -43 vlineto
            101 -18 36 -37 56 -157 rrcurveto
            return
          </CharString>
          <CharString index="312">
            rmoveto
            330 vlineto
            101 -2 276 -472 rlineto
            351 41 hlineto
            -62 17 -38 43 -95 167 rrcurveto
            -239 400 79 85 141 141 53 25 101 21 rlinecurve
            44 -377 -44 vlineto
            114 -20 7 -38 -87 -97 rrcurveto
            -227 -258 -98 -2 rlineto
            315 112 callsubr
          </CharString>
          <CharString index="313">
            305 -780 133 0 290 741 62 157 27 28 82 16 rlinecurve
            44 -330 -44 vlineto
            116 -17 16 -30 -49 -145 rrcurveto
            -170 -494 -173 498 -47 141 15 31 117 16 rlinecurve
            44 -549 -44 vlineto
            81 -17 27 -26 47 -119 rrcurveto
            return
          </CharString>
          <CharString index="314">
            -138 -147 -97 -78 -113 -33 vhcurveto
            26 -15 rlineto
            65 30 60 36 75 hhcurveto
            79 46 -41 -65 -74 -68 -51 -148 -18 hvcurveto
            -35 vlineto
            2 69 callgsubr
            20 -26 hvcurveto
            39 34 33 41 42 -35 31 -42 -44 -34 -32 -43 -85 98 -73 143 hvcurveto
            return
          </CharString>
          <CharString index="315">
            1386 1308 415 rmoveto
            230 -200 124 -295 13 vhcurveto
            227 14 204 104 201 vvcurveto
            228 -229 115 -371 vhcurveto
            -590 -75 callsubr
            -107 callsubr
            200 callsubr
            return
          </CharString>
          <CharString index="316">
            1291 rmoveto
            -115 121 -72 153 152 121 71 117 113 -120 73 -153 -154 -120 -73 -114 vhcurveto
            180 hmoveto
            81 37 60 57 56 37 -59 -81 -85 -37 -57 -56 -57 -37 57 84 vhcurveto
            return
          </CharString>
          <CharString index="317">
            512 vlineto
            200 -5 125 -5 29 -50 28 -152 rlinecurve
            39 475 -39 hlineto
            -30 -153 -28 -49 -124 -5 rrcurveto
            -200 -5 0 641 169 -8 268 -13 86 -65 53 -237 rlinecurve
            42 hlineto
            endchar
          </CharString>
          <CharString index="318">
            -159 168 -266 -299 -195 -213 -299 vhcurveto
            279 99 rmoveto
            227 79 127 136 119 56 -122 -179 -24 -1 -19 -1 -16 vhcurveto
            -387 -4 rlineto
            -1 3 0 3 4 vvcurveto
            return
          </CharString>
          <CharString index="319">
            rmoveto
            -108 121 -66 152 153 121 66 108 106 -120 68 -154 -153 -120 -68 -106 vhcurveto
            180 hmoveto
            75 37 54 56 57 37 -54 -75 -78 -37 -51 -57 -56 -37 52 77 vhcurveto
            endchar
          </CharString>
          <CharString index="320">
            48 -47 57 9 8 1 2 8 hvcurveto
            -48 -41 -69 -34 -94 hhcurveto
            -94 -69 34 48 -41 hvcurveto
            -2 8 9 -1 8 hhcurveto
            57 48 47 61 62 -47 49 -63 -66 -48 -47 -72 -121 111 -112 187 hvcurveto
            return
          </CharString>
          <CharString index="321">
            -16 hlineto
            16 hlineto
            168 451 16 -541 rlineto
            -46 -12 -13 -62 -8 vhcurveto
            -32 347 32 vlineto
            -65 8 -11 14 -1 46 -17 538 rcurveline
            47 13 12 61 10 vhcurveto
            31 -288 vlineto
            -174 -523 rlineto
            return
          </CharString>
          <CharString index="322">
            -474 rmoveto
            95 84 40 65 37 hvcurveto
            43 vlineto
            -22 -20 -34 -12 -38 hhcurveto
            -57 -50 41 81 89 53 86 138 96 hvcurveto
            -49 hlineto
            -251 -115 -95 -114 -112 vvcurveto
            -104 81 -62 106 vhcurveto
            endchar
          </CharString>
          <CharString index="323">
            -164 9 -619 rcurveline
            -301 4 -160 -177 -240 hhcurveto
            -232 -163 150 329 hvcurveto
            707 vlineto
            78 callsubr
            -43 vlineto
            108 -19 22 -21 -87 vvcurveto
            return
          </CharString>
          <CharString index="324">
            268 1475 rmoveto
            -78 -55 -54 -80 hvcurveto
            -1 -54 12 -40 32 -120 rrcurveto
            73 -275 34 0 73 275 rlineto
            32 119 12 41 54 vvcurveto
            80 -1 -55 54 -78 hhcurveto
            return
          </CharString>
          <CharString index="325">
            -358 rlineto
            41 hlineto
            48 231 81 57 236 16 46 2 rcurveline
            -1202 vlineto
            -99 -21 -30 -128 -18 vhcurveto
            -43 591 43 vlineto
            -120 19 -21 26 94 vvcurveto
            return
          </CharString>
          <CharString index="326">
            366 195 227 342 5 vhcurveto
            9 635 4 162 18 39 116 17 rlinecurve
            44 -372 -44 vlineto
            127 -20 19 -36 4 216 callsubr
            return
          </CharString>
          <CharString index="327">
            75 65 -24 -37 46 vhcurveto
            -3 -2 0 -3 hhcurveto
            -66 -55 -53 -72 -71 56 -55 72 71 58 56 72 153 -161 101 -221 -245 -231 -125 -274 return
          </CharString>
          <CharString index="328">
            rmoveto
            -162 -161 255 -189 hhcurveto
            -150 -101 -109 -234 hvcurveto
            79 hlineto
            179 1 71 76 98 162 162 -255 189 hhcurveto
            150 100 return
          </CharString>
          <CharString index="329">
            56 57 37 -59 -81 -85 -37 -57 -57 -56 -37 57 84 vhcurveto
            return
          </CharString>
          <CharString index="330">
            44 vlineto
            -26 -28 -44 -17 -47 hhcurveto
            -84 -59 51 136 hvcurveto
            return
          </CharString>
          <CharString index="331">
            42 84 79 82 46 -101 -247 -246 -42 -84 -80 hvcurveto
            return
          </CharString>
          <CharString index="332">
            24 -12 -25 37 hvcurveto
            29 -19 rlineto
            -35 51 43 -20 54 hhcurveto
            return
          </CharString>
          <CharString index="333">
            23 -12 -25 37 hvcurveto
            29 -19 rlineto
            -35 52 43 -20 53 hhcurveto
            return
          </CharString>
          <CharString index="334">
            17 30 7 31 hhcurveto
            60 -1 44 -27 -46 vvcurveto
            -47 -42 -27 return
          </CharString>
          <CharString index="335">
            3 17 1 20 20 vvcurveto
            144 -99 145 -196 vhcurveto
            return
          </CharString>
          <CharString index="336">
            -12 -24 36 hvcurveto
            29 -21 rlineto
            -34 51 43 -20 53 hhcurveto
            endchar
          </CharString>
          <CharString index="337">
            -14 -34 hhcurveto
            -74 -61 86 111 60 14 55 23 35 hvcurveto
            return
          </CharString>
          <CharString index="338">
            -15 -209 -209 -289 vvcurveto
            -307 218 -199 return
          </CharString>
          <CharString index="339">
            -28 -20 -49 hhcurveto
            -29 -29 7 12 -41 hvcurveto
            -34 10 rlineto
            13 return
          </CharString>
          <CharString index="340">
            -36 -64 -39 -88 hhcurveto
            -146 -104 152 257 hvcurveto
            endchar
          </CharString>
          <CharString index="341">
            -42 vlineto
            8 11 20 7 25 hhcurveto
            65 33 -39 -109 hvcurveto
            return
          </CharString>
          <CharString index="342">
            -44 vlineto
            117 -13 31 -32 -2 -89 rrcurveto
            -4 -125 -5 return
          </CharString>
          <CharString index="343">
            -50 18 25 -31 vhcurveto
            -41 vlineto
            -50 34 79 -38 91 hhcurveto
            endchar
          </CharString>
          <CharString index="344">
            -69 -49 callgsubr
            200 161 353 vvcurveto
            endchar
          </CharString>
          <CharString index="345">
            vvcurveto
            2 505 233 -640 103 0 52 189 rlineto
            return
          </CharString>
          <CharString index="346">
            rmoveto
            233 360 rlineto
            7 -246 vlineto
            -42 -367 rlineto
            return
          </CharString>
          <CharString index="347">
            vlineto
            51 -4 247 -20 84 -64 49 -235 rlinecurve
            41 hlineto
            return
          </CharString>
          <CharString index="348">
            hlineto
            -99 -4 -66 callgsubr
            -39 hvcurveto
            -31 21 rlineto
            39 return
          </CharString>
        <CharString name=".notdef">
          2048 154 -494 rmoveto
          101 2444 -101 hlineto
          410 -2444 rmoveto
          101 2444 -101 hlineto
          409 -14 callgsubr
          410 -14 callgsubr
          410 -14 callgsubr
          endchar
        </CharString>
        <CharString name=".null">
          0 endchar
        </CharString>
        <CharString name="A">
          1402 1221 255 -104 callsubr
        </CharString>
        <CharString name="AE">
          1914 1791 1444 148 callsubr
        </CharString>
        <CharString name="AEacute">
          1914 1164 -98 callsubr
          -92 callsubr
          682 -89 148 callsubr
        </CharString>
        <CharString name="AEmacron">
          1914 955 -24 callgsubr
          836 -276 148 callsubr
        </CharString>
        <CharString name="Aacute">
          1402 642 -98 callsubr
          -92 callsubr
          634 -1278 -104 callsubr
        </CharString>
        <CharString name="Abreve">
          1402 697 1575 rmoveto
          -56 callgsubr
          -124 167 callsubr
          524 -1320 -104 callsubr
        </CharString>
        <CharString name="Abreveacute">
          1402 977 -32 callgsubr
          281 -229 -34 callsubr
          -7 116 -79 171 hhcurveto
          524 -1285 -104 callsubr
        </CharString>
        <CharString name="Abrevecyrillic">
          1402 697 1575 rmoveto
          186 116 109 121 67 -47 48 -63 -63 -46 -49 -60 -59 46 -45 56 8 7 0 2 8 hvcurveto
          -48 -44 -73 -33 -91 hhcurveto
          -91 -73 33 48 -44 hvcurveto
          -2 8 7 0 8 hhcurveto
          56 46 45 59 60 -46 49 -62 -63 -47 -17 callgsubr
          524 -1320 -104 callsubr
        </CharString>
        <CharString name="Abrevedotbelow">
          1402 697 1575 rmoveto
          -56 callgsubr
          -124 167 callsubr
          524 -1320 rmoveto
          -19 callsubr
          52 callsubr
          -50 callgsubr
        </CharString>
        <CharString name="Abrevegrave">
          1402 417 64 callsubr
          280 -443 -34 callsubr
          -7 116 -79 171 hhcurveto
          524 -1285 -104 callsubr
        </CharString>
        <CharString name="Abrevehookabove">
          1402 689 1972 rmoveto
          -84 -60 -35 -38 -34 hvcurveto
          -31 vlineto
          13 22 41 12 45 hhcurveto
          63 38 -24 -36 -36 -34 -26 -68 -15 hvcurveto
          39 -24 rlineto
          136 22 70 36 71 vvcurveto
          69 -79 42 -95 vhcurveto
          8 -432 -34 callsubr
          -7 116 -79 171 hhcurveto
          524 -1285 -104 callsubr
        </CharString>
        <CharString name="Abrevetilde">
          1402 816 1799 rmoveto
          100 63 30 callgsubr
          -45 -44 11 -49 hhcurveto
          -99 -64 -58 -111 70 callgsubr
          -9 rlineto
          -14 45 44 -10 49 hhcurveto
          -119 -259 -34 callsubr
          -7 116 -79 171 hhcurveto
          524 -1285 -104 callsubr
        </CharString>
        <CharString name="Acaron">
          1402 937 -40 callsubr
          -58 callgsubr
          231 -1577 -104 callsubr
        </CharString>
        <CharString name="Acircumflex">
          1402 482 82 callsubr
          56 0 -207 -13 callgsubr
          792 -1277 -104 callsubr
        </CharString>
        <CharString name="Acircumflexacute">
          1402 977 1828 29 callsubr
          1 -245 rmoveto
          -73 callgsubr
          -263 177 -36 0 -262 -177 rlineto
          804 -1285 -104 callsubr
        </CharString>
        <CharString name="Acircumflexdotbelow">
          1402 482 82 callsubr
          56 0 -207 -13 callgsubr
          792 -1277 rmoveto
          -19 callsubr
          52 callsubr
          -50 callgsubr
        </CharString>
        <CharString name="Acircumflexgrave">
          1402 417 135 callsubr
          -73 callgsubr
          -263 177 -36 0 -262 -177 rlineto
          804 -1285 -104 callsubr
        </CharString>
        <CharString name="Acircumflexhookabove">
          1402 936 52 callgsubr
          62 35 -25 -35 -36 -32 -26 -65 98 callgsubr
          -92 vhcurveto
          -519 -417 rmoveto
          -73 callgsubr
          -263 177 -36 0 -262 -177 rlineto
          804 -1285 -104 callsubr
        </CharString>
        <CharString name="Acircumflextilde">
          1402 816 1778 -96 callgsubr
          -47 -2 232 callsubr
          -45 -44 10 -49 hhcurveto
          -99 -64 -57 -111 70 callgsubr
          -10 rlineto
          -13 45 44 -10 49 hhcurveto
          -399 -276 rmoveto
          -73 callgsubr
          -263 177 -36 0 -262 -177 rlineto
          804 -1285 -104 callsubr
        </CharString>
        <CharString name="Acyrillic">
          1402 1221 255 -104 callsubr
        </CharString>
        <CharString name="Adblgrave">
          1402 519 5 callgsubr
          312 -1277 -104 callsubr
        </CharString>
        <CharString name="Adieresis">
          1402 535 53 callsubr
          -51 -47 -63 -62 51 -49 63 hvcurveto
          361 -1307 -104 callsubr
        </CharString>
        <CharString name="Adieresismacron">
          1402 416 -107 callgsubr
          132 -367 rmoveto
          138 callsubr
          -54 -41 -35 -47 -48 41 -34 54 hvcurveto
          315 hmoveto
          53 41 34 48 47 -41 35 -53 hvcurveto
          -8 hlineto
          -54 -41 -35 -47 -48 41 -34 54 hvcurveto
          374 -1305 -104 callsubr
        </CharString>
        <CharString name="Adotaccent">
          1402 697 12 callsubr
          -66 -54 -49 -65 -64 54 -50 66 hvcurveto
          524 -1304 -104 callsubr
        </CharString>
        <CharString name="Adotbelow">
          1402 1221 255 rmoveto
          -19 callsubr
          52 callsubr
          -50 callgsubr
        </CharString>
        <CharString name="Adotmacron">
          1402 416 23 callgsubr
          -44 -38 -50 -51 44 -37 57 hvcurveto
          524 -1299 -104 callsubr
        </CharString>
        <CharString name="Agrave">
          1402 777 76 callsubr
          799 -1552 -104 callsubr
        </CharString>
        <CharString name="Ahookabove">
          1402 727 -61 callgsubr
          41 17 48 hhcurveto
          61 40 -8 callgsubr
          -71 callgsubr
          -69 52 -99 vhcurveto
          494 -1603 -104 callsubr
        </CharString>
        <CharString name="Ainvertedbreve">
          1402 697 4 callgsubr
          2 16 2 142 callsubr
          524 -1624 -104 callsubr
        </CharString>
        <CharString name="Alphagreek">
          1402 1221 255 -104 callsubr
        </CharString>
        <CharString name="Alphatonosgreek">
          1402 1221 255 rmoveto
          -19 callsubr
          615 43 vlineto
          -102 18 -35 37 -56 157 rrcurveto
          -998 822 -43 callgsubr
          206 -512 rmoveto
          208 623 213 -623 rlineto
          endchar
        </CharString>
        <CharString name="Amacron">
          1402 433 -24 callgsubr
          788 -1465 -104 callsubr
        </CharString>
        <CharString name="Aogonek">
          1402 1118 -479 rmoveto
          94 78 50 73 28 hvcurveto
          -1 42 rlineto
          -19 -15 -28 230 callsubr
          272 43 hlineto
          -102 18 -35 37 -56 157 rrcurveto
          -19 callsubr
          294 vlineto
          -105 -75 -71 -103 -112 vvcurveto
          -113 86 -76 115 vhcurveto
          -744 1044 rmoveto
          208 623 213 -623 rlineto
          endchar
        </CharString>
        <CharString name="Aring">
          1402 450 1722 rmoveto
          -104 110 -65 137 138 109 94 callgsubr
          163 hmoveto
          74 33 52 51 50 35 -53 -73 -76 -35 -50 -50 -51 -33 50 76 vhcurveto
          608 -1467 -104 callsubr
        </CharString>
        <CharString name="Aringacute">
          1402 977 48 callgsubr
          132 86 36 57 56 -86 37 -132 hvcurveto
          -50 hlineto
          -130 -89 -37 -56 -57 89 -36 130 hvcurveto
          40 33 rmoveto
          -30 hlineto
          -44 -25 24 36 35 26 25 43 hvcurveto
          30 hlineto
          44 24 -25 -35 -36 -25 -24 -43 hvcurveto
          509 -1311 -104 callsubr
        </CharString>
        <CharString name="Aringbelow">
          1402 1221 255 rmoveto
          -19 callsubr
          52 callsubr
          -433 -850 212 callsubr
        </CharString>
        <CharString name="Atilde">
          1402 810 1552 rmoveto
          98 179 callsubr
          -37 hvcurveto
          -29 46 callgsubr
          226 callsubr
          411 -1297 -104 callsubr
        </CharString>
        <CharString name="B">
          1386 1308 415 109 callsubr
        </CharString>
        <CharString name="Bdotaccent">
          1386 684 -30 callsubr
          624 -1144 109 callsubr
        </CharString>
        <CharString name="Bdotbelow">
          208 callsubr
          -305 -571 -41 callsubr
          66 -43 callsubr
        </CharString>
        <CharString name="Becyrillic">
          1328 1266 416 rmoveto
          254 -224 152 -383 vhcurveto
          -166 571 hlineto
          189 -6 283 -8 78 -50 55 -236 rlinecurve
          41 hlineto
          -14 351 rlineto
          -1071 -75 callsubr
          -107 callsubr
          607 vlineto
          378 227 156 260 hvcurveto
          -320 -4 rmoveto
          -212 -111 -136 -239 -9 vhcurveto
          -103 -3 0 717 103 -4 rlineto
          234 -9 116 -135 -209 vvcurveto
          endchar
        </CharString>
        <CharString name="Betagreek">
          1386 1308 415 109 callsubr
        </CharString>
        <CharString name="Blinebelow">
          208 callsubr
          -577 -752 -79 callsubr
        </CharString>
        <CharString name="C">
          1413 88 729 -17 callsubr
          -33 callsubr
        </CharString>
        <CharString name="Cacute">
          1413 804 -98 callsubr
          -92 callsubr
          -661 -804 -17 callsubr
          -33 callsubr
        </CharString>
        <CharString name="Ccaron">
          1413 1099 -40 callsubr
          -11 callsubr
          93 callsubr
          -1064 -1103 -17 callsubr
          -33 callsubr
        </CharString>
        <CharString name="Ccedilla">
          1413 88 729 rmoveto
          -455 320 -282 426 -14 vhcurveto
          -124 -154 1 -37 rlineto
          5 10 20 4 19 -6 callgsubr
          -50 84 callsubr
          79 -37 93 hhcurveto
          -24 callsubr
          -7 callgsubr
          67 85 rlineto
          192 4 166 48 71 51 12 368 rcurveline
          -27 callgsubr
          -33 callsubr
        </CharString>
        <CharString name="Ccedillaacute">
          1413 804 -98 callsubr
          -92 callsubr
          -661 -804 rmoveto
          -455 320 -282 426 -14 vhcurveto
          -124 -154 1 -37 rlineto
          5 10 20 4 19 -6 callgsubr
          -50 84 callsubr
          79 -37 93 hhcurveto
          -24 callsubr
          -7 callgsubr
          67 85 rlineto
          192 4 166 48 71 51 12 368 rcurveline
          -27 callgsubr
          -33 callsubr
        </CharString>
        <CharString name="Ccircumflex">
          1413 644 82 callsubr
          55 0 -206 -13 callgsubr
          -503 -803 -17 callsubr
          -33 callsubr
        </CharString>
        <CharString name="Cdotaccent">
          1413 859 12 callsubr
          -67 -65 callgsubr
          -771 -830 -17 callsubr
          -33 callsubr
        </CharString>
        <CharString name="Checyrillic">
          1549 1357 111 callgsubr
          -569 -82 callgsubr
          -573 vlineto
          -34 -74 -89 -18 -103 hhcurveto
          -217 -103 119 241 hvcurveto
          265 vlineto
          86 20 21 110 19 vhcurveto
          43 -561 -82 callgsubr
          -251 vlineto
          -308 207 -146 312 152 129 31 46 87 vhcurveto
          -460 vlineto
          -97 -21 -29 -129 -18 vhcurveto
          -43 589 43 vlineto
          -116 20 -22 23 89 vvcurveto
          endchar
        </CharString>
        <CharString name="Chigreek">
          1386 282 296 41 callsubr
        </CharString>
        <CharString name="D">
          1569 20 callsubr
          endchar
        </CharString>
        <CharString name="Dbar">
          1569 54 713 rmoveto
          138 -538 hlineto
          -89 -21 -23 -117 -20 vhcurveto
          -43 559 vlineto
          478 399 265 481 452 -355 246 -528 hvcurveto
          -553 -75 callsubr
          -502 -138 vlineto
          1103 -42 130 callsubr
          rlineto
          663 285 54 -285 627 vlineto
          81 -3 373 -11 211 -264 -1 -391 rlinecurve
          endchar
        </CharString>
        <CharString name="Dcaron">
          1569 990 3 callsubr
          447 -1086 108 callsubr
          endchar
        </CharString>
        <CharString name="Dcircumflexbelow">
          1569 20 callsubr
          -669 -1174 -42 callsubr
          -53 callgsubr
        </CharString>
        <CharString name="Dcommaaccent">
          1569 20 callsubr
          -450 -1180 -55 callsubr
          55 callsubr
        </CharString>
        <CharString name="Ddotaccent">
          1569 751 -30 callsubr
          739 -813 108 callsubr
          endchar
        </CharString>
        <CharString name="Ddotbelow">
          1569 20 callsubr
          -442 -895 -45 callsubr
          -43 callsubr
        </CharString>
        <CharString name="Decyrillic">
          1461 1420 56 rmoveto
          -181 1198 hlineto
          99 21 30 127 18 vhcurveto
          43 -1187 -43 vlineto
          137 -19 47 -41 -3 -148 rrcurveto
          -6 -162 -11 -432 -51 -344 -143 -199 rlinecurve
          -147 hlineto
          -9 -404 rlineto
          46 hlineto
          285 68 80 63 261 hhcurveto
          506 hlineto
          267 73 -70 -278 67 hvcurveto
          46 hlineto
          -490 404 rmoveto
          -687 hlineto
          132 201 50 328 10 446 9 357 rcurveline
          486 hlineto
          endchar
        </CharString>
        <CharString name="Deltagreek">
          1307 44 hmoveto
          1219 151 hlineto
          -522 1298 -176 0 -521 -1298 rlineto
          86 40 rmoveto
          415 1014 386 -1014 rlineto
          endchar
        </CharString>
        <CharString name="Djecyrillic">
          1722 -49 callsubr
          218 callsubr
          509 vlineto
          34 57 80 21 89 hhcurveto
          199 124 -151 -280 2 hvcurveto
          2 -280 -104 -248 -200 -127 22 -36 rcurveline
          343 132 239 249 327 vvcurveto
          327 -219 170 -290 -153 -119 -36 -47 -72 vhcurveto
          646 103 callgsubr
        </CharString>
        <CharString name="Dlinebelow">
          1569 20 callsubr
          -715 -1076 rmoveto
          546 134 -546 hlineto
          endchar
        </CharString>
        <CharString name="Dzecyrillic">
          1206 578 -22 102 callsubr
          endchar
        </CharString>
        <CharString name="Dzhecyrillic">
          1607 1415 1269 rmoveto
          78 callsubr
          -43 vlineto
          109 -19 21 -21 -86 vvcurveto
          -1220 -621 1220 vlineto
          86 21 21 109 19 vhcurveto
          43 -78 callsubr
          -107 callsubr
          536 vlineto
          120 25 -40 -289 46 hvcurveto
          46 hlineto
          289 46 25 40 119 hhcurveto
          536 43 hlineto
          -117 20 -21 23 89 vvcurveto
          endchar
        </CharString>
        <CharString name="E">
          1251 1130 1444 -97 callsubr
        </CharString>
        <CharString name="Eacute">
          1251 602 -98 callsubr
          -92 callsubr
          583 -89 -97 callsubr
        </CharString>
        <CharString name="Ebreve">
          1251 657 162 callsubr
          134 callsubr
          473 -131 -97 callsubr
        </CharString>
        <CharString name="Ecaron">
          1251 897 -40 callsubr
          -11 callsubr
          94 callsubr
          181 -388 -97 callsubr
        </CharString>
        <CharString name="Ecedilla">
          1251 621 -455 -25 callgsubr
          -112 -13 -14 -1 -2 -12 hvcurveto
          78 99 rlineto
          8 494 vlineto
          -35 callsubr
          -8 callsubr
          -14 373 rlineto
          -28 callsubr
          579 vlineto
          -142 -176 114 callsubr
          endchar
        </CharString>
        <CharString name="Ecedillabreve">
          1251 657 162 callsubr
          134 callsubr
          -36 -2030 -25 callgsubr
          -112 -13 -14 -1 -2 -12 hvcurveto
          78 99 rlineto
          8 494 vlineto
          -35 callsubr
          -8 callsubr
          -14 373 rlineto
          -28 callsubr
          579 vlineto
          -142 -176 114 callsubr
          endchar
        </CharString>
        <CharString name="Ecircumflex">
          1251 441 -61 callsubr
          -50 callsubr
          741 -88 -97 callsubr
        </CharString>
        <CharString name="Ecircumflexacute">
          1251 937 1828 29 callsubr
          1 -245 rmoveto
          -47 callgsubr
          -262 -177 rlineto
          754 -96 -97 callsubr
        </CharString>
        <CharString name="Ecircumflexbelow">
          1251 1130 1444 rmoveto
          -28 callsubr
          1123 vlineto
          -35 callsubr
          -8 callsubr
          -723 -1520 127 callsubr
        </CharString>
        <CharString name="Ecircumflexdotbelow">
          1251 441 -61 callsubr
          -50 callsubr
          741 -88 rmoveto
          -28 callsubr
          1123 vlineto
          -35 callsubr
          -8 callsubr
          -496 -1241 -45 callsubr
          -43 callsubr
        </CharString>
        <CharString name="Ecircumflexgrave">
          1251 377 135 callsubr
          -47 callgsubr
          -262 -177 rlineto
          754 -96 -97 callsubr
        </CharString>
        <CharString name="Ecircumflexhookabove">
          1251 896 1919 rmoveto
          -80 -57 -35 -39 -33 26 callgsubr
          -519 -417 rmoveto
          -47 callgsubr
          -262 -177 rlineto
          754 -96 -97 callsubr
        </CharString>
        <CharString name="Ecircumflextilde">
          1251 775 86 callgsubr
          -29 -20 -48 hhcurveto
          -29 -30 7 12 -40 hvcurveto
          -34 10 rlineto
          13 36 callgsubr
          -6 -13 139 callsubr
          -398 -276 rmoveto
          -47 callgsubr
          -262 -177 rlineto
          754 -96 -97 callsubr
        </CharString>
        <CharString name="Ecyrillic">
          1429 88 729 -17 callsubr
          -287 -162 310 361 -9 hvcurveto
          649 -13 0 81 -650 -13 rlineto
          387 7 170 253 278 hhcurveto
          -2 callgsubr
        </CharString>
        <CharString name="Edblgrave">
          1251 478 161 callsubr
          262 -88 -97 callsubr
        </CharString>
        <CharString name="Edieresis">
          1251 494 1562 rmoveto
          25 callsubr
          -39 callsubr
          17 callsubr
          -58 callsubr
          310 -118 -97 callsubr
        </CharString>
        <CharString name="Edotaccent">
          1251 657 128 callsubr
          -65 callgsubr
          473 -115 -97 callsubr
        </CharString>
        <CharString name="Edotbelow">
          1251 1130 1444 rmoveto
          -28 callsubr
          1123 vlineto
          -35 callsubr
          -8 callsubr
          -496 -1241 -45 callsubr
          -43 callsubr
        </CharString>
        <CharString name="Efcyrillic">
          1930 68 719 rmoveto
          -301 279 -190 477 -11 vhcurveto
          -49 -78 callgsubr
          579 83 callsubr
          49 vlineto
          493 11 262 189 304 vvcurveto
          298 -261 196 -494 11 vhcurveto
          50 vlineto
          99 21 30 127 18 vhcurveto
          43 -579 -43 vlineto
          127 -18 21 -30 -99 vvcurveto
          -50 vlineto
          -510 -10 -246 -195 -302 vvcurveto
          320 6 rmoveto
          229 120 200 316 17 vhcurveto
          -899 vlineto
          -302 18 -134 201 234 vvcurveto
          1155 -5 rmoveto
          -230 -127 -200 -309 -18 vhcurveto
          899 vlineto
          308 -18 128 -200 -233 vvcurveto
          endchar
        </CharString>
        <CharString name="Egrave">
          1251 737 -59 callgsubr
          748 -363 -97 callsubr
        </CharString>
        <CharString name="Ehookabove">
          1251 687 69 callsubr
          24 42 22 callsubr
          70 callsubr
          443 -414 -97 callsubr
        </CharString>
        <CharString name="Einvertedbreve">
          1251 656 1879 rmoveto
          -174 101 callsubr
          144 callsubr
          28 callgsubr
          474 -435 -97 callsubr
        </CharString>
        <CharString name="Elcyrillic">
          1476 41 callgsubr
          477 -1213 hlineto
          -89 -22 -23 -115 -20 vhcurveto
          -43 576 43 vlineto
          -116 20 -22 23 89 vvcurveto
          1094 vlineto
          90 22 22 116 20 vhcurveto
          43 -1170 100 callgsubr
          -460 -29 -287 -86 -136 rlinecurve
          81 -66 67 -81 -85 -65 -67 -85 vhcurveto
          endchar
        </CharString>
        <CharString name="Emacron">
          1251 393 -48 callsubr
          737 -276 -97 callsubr
        </CharString>
        <CharString name="Emacronacute">
          1251 937 -38 callsubr
          74 callgsubr
          754 -250 -97 callsubr
        </CharString>
        <CharString name="Emacrongrave">
          1251 377 64 callsubr
          -1 -392 rmoveto
          562 103 -562 hlineto
          754 -250 -97 callsubr
        </CharString>
        <CharString name="Emcyrillic">
          1817 518 1444 43 callsubr
        </CharString>
        <CharString name="Encyrillic">
          -13 callsubr
          1094 -68 callsubr
          -66 callsubr
          -78 callsubr
          -107 callsubr
          -54 callsubr
        </CharString>
        <CharString name="Eogonek">
          1251 992 -479 rmoveto
          95 78 50 73 28 hvcurveto
          -1 42 rlineto
          -19 -16 -27 230 callsubr
          160 hlineto
          -35 callsubr
          -28 -50 -125 34 callgsubr
          -14 373 rlineto
          -28 callsubr
          914 vlineto
          -105 -75 -71 -103 -112 vvcurveto
          -113 86 -76 114 vhcurveto
          endchar
        </CharString>
        <CharString name="Epsilongreek">
          1251 1130 1444 -97 callsubr
        </CharString>
        <CharString name="Epsilontonosgreek">
          1558 1437 1444 rmoveto
          -1075 -43 hlineto
          116 -20 21 -23 -89 vvcurveto
          -1094 vlineto
          -89 -21 -23 -116 -20 vhcurveto
          -43 1122 vlineto
          17 410 rlineto
          -42 hlineto
          -58 -273 -86 -64 -291 -13 rrcurveto
          -224 -10 0 664 233 -5 126 -5 30 -51 29 -151 rlinecurve
          38 474 -38 hlineto
          -31 -151 -28 -50 -126 -5 rrcurveto
          -233 -6 0 630 190 -8 277 -13 88 -66 55 -236 rlinecurve
          42 hlineto
          -1392 6 -43 callgsubr
          endchar
        </CharString>
        <CharString name="Ercyrillic">
          1343 1264 1028 44 callsubr
        </CharString>
        <CharString name="Ereversedcyrillic">
          1437 115 87 rmoveto
          -59 82 184 -50 180 hhcurveto
          460 328 294 465 439 -323 290 -459 -210 -157 -47 -57 -77 hvcurveto
          -13 -305 rlineto
          41 hlineto
          221 53 136 128 213 hhcurveto
          279 176 -250 -391 8 hvcurveto
          -645 13 0 -81 645 12 rlineto
          -368 -9 -166 -303 -294 hhcurveto
          -188 -159 100 253 -58 hvcurveto
          -41 hlineto
          endchar
        </CharString>
        <CharString name="Escyrillic">
          1413 88 729 -17 callsubr
          -33 callsubr
        </CharString>
        <CharString name="Etagreek">
          -13 callsubr
          1094 -68 callsubr
          -66 callsubr
          -78 callsubr
          -107 callsubr
          -54 callsubr
        </CharString>
        <CharString name="Etatonosgreek">
          1925 800 169 rmoveto
          542 632 -542 87 callsubr
          163 callsubr
          -66 callsubr
          -568 -43 vlineto
          117 -20 20 -23 -89 vvcurveto
          -1094 vlineto
          -89 -21 -23 -116 -20 vhcurveto
          -43 568 43 vlineto
          -109 19 -21 21 86 vvcurveto
          -740 908 -43 callgsubr
          endchar
        </CharString>
        <CharString name="Etilde">
          1251 770 -9 callsubr
          -67 callgsubr
          97 callsubr
          85 callsubr
          18 callsubr
          360 -108 -97 callsubr
        </CharString>
        <CharString name="Etildebelow">
          1251 1130 1444 rmoveto
          -28 callsubr
          1123 vlineto
          -35 callsubr
          -8 callsubr
          -384 -1477 62 callsubr
          -29 -23 12 25 -37 hvcurveto
          -28 171 callsubr
          42 hhcurveto
          29 24 229 callsubr
        </CharString>
        <CharString name="F">
          1151 1096 1444 rmoveto
          -1042 -75 callsubr
          -107 callsubr
          -22 callsubr
          210 callsubr
        </CharString>
        <CharString name="Fdotaccent">
          1151 631 12 callsubr
          -67 -65 callgsubr
          465 -115 rmoveto
          -1042 -75 callsubr
          -107 callsubr
          -22 callsubr
          210 callsubr
        </CharString>
        <CharString name="G">
          1543 88 726 -20 callsubr
        </CharString>
        <CharString name="Gacute">
          1543 802 -98 callsubr
          -92 callsubr
          -659 -807 -20 callsubr
        </CharString>
        <CharString name="Gammagreek">
          1143 1087 1444 rmoveto
          -1033 -75 callsubr
          -107 callsubr
          -22 callsubr
          1204 vlineto
          170 -6 267 -10 78 -56 52 -229 rlinecurve
          41 hlineto
          endchar
        </CharString>
        <CharString name="Gbreve">
          1543 857 1575 rmoveto
          173 -70 callgsubr
          -84 callgsubr
          20 callgsubr
          -769 -849 -20 callsubr
        </CharString>
        <CharString name="Gcaron">
          1543 1096 3 callsubr
          -1061 -1106 -20 callsubr
        </CharString>
        <CharString name="Gcircumflex">
          1543 641 -61 callsubr
          -50 callsubr
          -501 -806 -20 callsubr
        </CharString>
        <CharString name="Gcommaaccent">
          1543 88 726 rmoveto
          -452 321 -296 452 204 204 55 89 118 vhcurveto
          393 vlineto
          91 19 23 113 13 vhcurveto
          43 -544 -43 vlineto
          121 -13 19 -22 -91 vvcurveto
          -408 vlineto
          -41 -47 -88 -28 -104 hhcurveto
          -295 -159 327 376 400 170 263 288 224 143 -160 -241 53 hvcurveto
          41 hlineto
          -11 367 rlineto
          53 -79 -157 42 -226 hhcurveto
          -431 -349 -258 -482 hvcurveto
          758 -1181 -55 callsubr
          100 callsubr
          -28 hvcurveto
          -38 vlineto
          8 17 21 callsubr
          -53 -51 126 callsubr
        </CharString>
        <CharString name="Gdotaccent">
          1543 857 -30 callsubr
          -769 -833 -20 callsubr
        </CharString>
        <CharString name="Geacutecyrillic">
          1144 562 -60 callgsubr
          579 -89 rmoveto
          -1033 -75 callsubr
          -107 callsubr
          -22 callsubr
          49 callgsubr
        </CharString>
        <CharString name="Gecyrillic">
          1144 1087 1444 rmoveto
          -1033 -75 callsubr
          -107 callsubr
          -22 callsubr
          49 callgsubr
        </CharString>
        <CharString name="Germandbls">
          1477 493 hmoveto
          1394 vlineto
          192 -8 rlineto
          268 -11 111 -127 -160 vvcurveto
          -139 -79 -95 -156 -25 vhcurveto
          -186 vlineto
          217 -56 109 -135 -171 vvcurveto
          -152 -84 -91 -121 -137 -108 134 218 -39 vhcurveto
          -41 -341 hlineto
          -36 55 123 -35 151 hhcurveto
          227 218 142 259 231 -136 181 -230 63 hvcurveto
          183 15 128 99 158 vvcurveto
          192 -181 126 -400 vhcurveto
          -709 -43 hlineto
          117 -18 21 -23 -88 vvcurveto
          -1100 vlineto
          -88 -21 -23 -117 -18 vhcurveto
          -43 vlineto
          endchar
        </CharString>
        <CharString name="Geupturncyrillic">
          1115 1061 1389 rmoveto
          12 390 rlineto
          -46 hlineto
          -278 -77 -64 -57 -289 hhcurveto
          -543 -75 callsubr
          -107 callsubr
          -22 callsubr
          1199 vlineto
          endchar
        </CharString>
        <CharString name="Gmacron">
          1543 593 -48 callsubr
          -505 -994 -20 callsubr
        </CharString>
        <CharString name="H">
          -13 callsubr
          1094 -68 callsubr
          -66 callsubr
          -78 callsubr
          -107 callsubr
          -54 callsubr
        </CharString>
        <CharString name="Hacyrillic">
          1386 282 296 41 callsubr
        </CharString>
        <CharString name="Hardsigncyrillic">
          1579 1505 173 callsubr
          127 18 vhcurveto
          43 -829 vlineto
          -13 -351 rlineto
          41 hlineto
          45 230 71 55 218 13 17 1 rcurveline
          -1204 vlineto
          -97 -21 -30 -126 -18 vhcurveto
          -43 625 vlineto
          381 214 177 260 hvcurveto
          -319 -6 rmoveto
          -219 -106 -148 -235 -9 vhcurveto
          -111 -3 0 755 112 callgsubr
        </CharString>
        <CharString name="Hbar">
          -13 callsubr
          876 137 55 -137 163 -68 callsubr
          -169 -632 169 -14 callsubr
          -163 -138 -55 138 -876 -79 callgsubr
          -47 callsubr
          598 vmoveto
          284 632 -284 vlineto
          endchar
        </CharString>
        <CharString name="Hbrevebelow">
          -13 callsubr
          1094 -68 callsubr
          -66 callsubr
          -78 callsubr
          -107 callsubr
          -47 callsubr
          316 -610 rmoveto
          64 callgsubr
          -94 -64 -130 166 callsubr
        </CharString>
        <CharString name="Hcaron">
          1617 1049 1831 rmoveto
          -228 -138 -227 138 -55 0 206 -280 151 0 206 280 rlineto
          -609 -1662 50 callsubr
          1094 -68 callsubr
          -66 callsubr
          -78 callsubr
          -107 callsubr
          -54 callsubr
        </CharString>
        <CharString name="Hcedilla">
          -13 callsubr
          1094 -68 callsubr
          -66 callsubr
          -78 callsubr
          -107 callsubr
          262 vlineto
          -135 -176 59 callsubr
          14 21 -26 hvcurveto
          -1 -42 rlineto
          -52 34 78 -37 93 hhcurveto
          119 109 63 114 108 -94 66 -111 -15 -14 -1 -2 -13 hvcurveto
          80 107 rlineto
          251 43 hlineto
          -109 19 -21 21 86 vvcurveto
          endchar
        </CharString>
        <CharString name="Hcircumflex">
          1617 594 1532 rmoveto
          227 139 -50 callsubr
          -48 -1363 50 callsubr
          1094 -68 callsubr
          -66 callsubr
          -78 callsubr
          -107 callsubr
          -54 callsubr
        </CharString>
        <CharString name="Hdieresis">
          1617 647 1562 rmoveto
          63 51 95 callgsubr
          325 hmoveto
          63 51 48 63 63 -51 47 -63 -63 -51 -47 -63 -63 51 -48 63 hvcurveto
          -479 -1393 50 callsubr
          1094 -68 callsubr
          -66 callsubr
          -78 callsubr
          -107 callsubr
          -54 callsubr
        </CharString>
        <CharString name="Hdotaccent">
          1617 809 1558 rmoveto
          67 53 50 65 65 -53 49 -67 -67 -53 -49 -65 -65 53 -50 67 hvcurveto
          -316 -1389 50 callsubr
          1094 -68 callsubr
          -66 callsubr
          -78 callsubr
          -107 callsubr
          -54 callsubr
        </CharString>
        <CharString name="Hdotbelow">
          -13 callsubr
          1094 -68 callsubr
          -66 callsubr
          -78 callsubr
          -107 callsubr
          -47 callsubr
          316 -339 -45 callsubr
          -43 callsubr
        </CharString>
        <CharString name="I">
          16 callsubr
          -83 callsubr
        </CharString>
        <CharString name="IAcyrillic">
          1397 141 1036 rmoveto
          -195 135 -108 188 -43 vhcurveto
          -228 -388 -120 -200 -36 -40 -61 -21 rlinecurve
          -41 345 vlineto
          377 653 rlineto
          157 -484 hlineto
          -84 -20 -21 -110 -21 vhcurveto
          -43 568 43 vlineto
          -115 22 -22 23 87 vvcurveto
          1092 vlineto
          91 22 23 115 18 vhcurveto
          45 -607 vlineto
          -384 -204 -153 -255 hvcurveto
          307 11 rmoveto
          210 119 124 231 9 vhcurveto
          100 4 0 -691 -109 3 rlineto
          -203 5 -138 127 209 vvcurveto
          endchar
        </CharString>
        <CharString name="IJ">
          1370 493 175 -85 callsubr
          74 callsubr
          685 88 rmoveto
          1006 6 callsubr
          -981 vlineto
          -355 237 callsubr
        </CharString>
        <CharString name="IJacute">
          1370 287 -98 callsubr
          -284 vlineto
          -122 -281 rlineto
          739 -1 rmoveto
          352 276 rlineto
          6 -74 callgsubr
          -425 -1358 -85 callsubr
          74 callsubr
          685 88 rmoveto
          1006 6 callsubr
          -981 vlineto
          -355 237 callsubr
        </CharString>
        <CharString name="IUcyrillic">
          2287 493 169 rmoveto
          542 226 vlineto
          -451 5 340 -282 397 hhcurveto
          446 292 328 418 1 hvcurveto
          457 1 -344 285 -400 hhcurveto
          -430 -286 -303 -396 -21 hvcurveto
          -227 508 hlineto
          85 21 22 109 18 vhcurveto
          44 -78 callsubr
          -107 callsubr
          -47 callsubr
          975 -130 rmoveto
          -259 -158 288 408 394 114 276 285 258 161 -287 -408 -1 hvcurveto
          -394 -116 -277 -284 vhcurveto
          endchar
        </CharString>
        <CharString name="Iacute">
          685 287 -98 callsubr
          -284 vlineto
          -122 -281 rlineto
          260 -1358 -85 callsubr
          -83 callsubr
        </CharString>
        <CharString name="Ibreve">
          685 342 1575 rmoveto
          174 -70 callgsubr
          -3 15 hvcurveto
          -46 -4 hlineto
          -93 -90 -63 -125 167 callsubr
          151 -1400 -85 callsubr
          -83 callsubr
        </CharString>
        <CharString name="Icaron">
          685 582 -40 callsubr
          -226 139 -55 0 206 -281 94 callsubr
          -142 -1657 -85 callsubr
          -83 callsubr
        </CharString>
        <CharString name="Icircumflex">
          685 127 82 callsubr
          56 0 -206 281 32 callsubr
          419 -1357 -85 callsubr
          -83 callsubr
        </CharString>
        <CharString name="Icyrillic">
          16 callsubr
          -83 callsubr
        </CharString>
        <CharString name="Idblgrave">
          685 164 1813 rmoveto
          -254 -5 hlineto
          315 -276 rlineto
          59 hlineto
          225 281 rmoveto
          -234 -5 hlineto
          223 -276 rlineto
          56 hlineto
          -61 -1357 -85 callsubr
          -83 callsubr
        </CharString>
        <CharString name="Idieresis">
          685 180 53 callsubr
          -39 callsubr
          -12 -1387 -85 callsubr
          -83 callsubr
        </CharString>
        <CharString name="Idieresisacute">
          685 622 -38 callsubr
          -560 -177 rlineto
          -38 vlineto
          131 -208 rmoveto
          138 callsubr
          -53 98 callsubr
          33 callsubr
          -54 -41 -35 -47 -48 41 -34 54 hvcurveto
          1 -1385 -85 callsubr
          -83 callsubr
        </CharString>
        <CharString name="Idotaccent">
          685 342 169 callsubr
          151 -1384 -85 callsubr
          -83 callsubr
        </CharString>
        <CharString name="Idotbelow">
          16 callsubr
          74 callsubr
          -149 -345 -41 callsubr
          66 -43 callsubr
        </CharString>
        <CharString name="Iecyrillic">
          1251 1130 1444 -97 callsubr
        </CharString>
        <CharString name="Igrave">
          685 422 76 callsubr
          426 -1632 -85 callsubr
          -83 callsubr
        </CharString>
        <CharString name="Ihookabove">
          685 372 -61 callgsubr
          42 22 callsubr
          -71 callgsubr
          -68 52 -100 vhcurveto
          121 -1683 -85 callsubr
          -83 callsubr
        </CharString>
        <CharString name="Iicyrillic">
          1638 493 169 rmoveto
          67 vlineto
          652 886 rlineto
          -953 87 callsubr
          163 callsubr
          -66 vlineto
          -652 -886 rlineto
          952 -14 callsubr
          -107 callsubr
          -54 callsubr
        </CharString>
        <CharString name="Iinvertedbreve">
          685 342 1879 rmoveto
          -175 101 callsubr
          3 -15 hvcurveto
          46 4 hlineto
          93 91 64 124 124 91 -64 -93 vhcurveto
          -4 46 vlineto
          3 16 1 142 callsubr
          151 -1704 -85 callsubr
          -83 callsubr
        </CharString>
        <CharString name="Iishortcyrillic">
          1638 818 1575 rmoveto
          -29 callgsubr
          -62 -46 157 callsubr
          -46 -17 callgsubr
          -325 -1406 rmoveto
          67 vlineto
          652 886 rlineto
          -953 87 callsubr
          163 callsubr
          -66 vlineto
          -652 -886 rlineto
          952 -14 callsubr
          -107 callsubr
          -54 callsubr
        </CharString>
        <CharString name="Imacron">
          685 79 -48 callsubr
          414 -1545 -85 callsubr
          -83 callsubr
        </CharString>
        <CharString name="Iocyrillic">
          1251 494 1562 rmoveto
          25 callsubr
          -39 callsubr
          17 callsubr
          -58 callsubr
          310 -118 -97 callsubr
        </CharString>
        <CharString name="Iogonek">
          16 callsubr
          279 vlineto
          -105 -75 -71 -103 -112 vvcurveto
          -113 87 -76 114 92 callgsubr
          -60 86 111 60 14 55 22 35 hvcurveto
          248 43 hlineto
          -116 20 -21 23 89 vvcurveto
          endchar
        </CharString>
        <CharString name="Iotadieresisgreek">
          685 180 53 callsubr
          -39 callsubr
          -12 -1387 -85 callsubr
          -83 callsubr
        </CharString>
        <CharString name="Iotagreek">
          16 callsubr
          -83 callsubr
        </CharString>
        <CharString name="Iotatonosgreek">
          992 800 175 rmoveto
          1094 vlineto
          89 21 23 117 -101 callgsubr
          33 callgsubr
          -740 902 -43 callgsubr
          endchar
        </CharString>
        <CharString name="Itilde">
          685 456 1552 rmoveto
          97 179 callsubr
          -36 hvcurveto
          -30 46 callgsubr
          23 -12 -25 37 hvcurveto
          29 -19 rlineto
          -35 52 43 -20 54 hhcurveto
          37 -1377 -85 callsubr
          -83 callsubr
        </CharString>
        <CharString name="Itildebelow">
          16 callsubr
          74 callsubr
          -37 -581 62 callsubr
          -28 -24 -9 callgsubr
          55 callgsubr
        </CharString>
        <CharString name="J">
          685 493 263 rmoveto
          1006 6 callsubr
          113 callsubr
        </CharString>
        <CharString name="Jacute">
          685 288 -98 callsubr
          -92 callsubr
          260 -1270 rmoveto
          1006 6 callsubr
          113 callsubr
        </CharString>
        <CharString name="Jcircumflex">
          685 127 -61 callsubr
          -50 callsubr
          418 -1269 rmoveto
          1006 6 callsubr
          113 callsubr
        </CharString>
        <CharString name="Jecyrillic">
          685 493 263 rmoveto
          1006 6 callsubr
          113 callsubr
        </CharString>
        <CharString name="K">
          1407 493 169 -2 callsubr
        </CharString>
        <CharString name="Kaacutecyrillic">
          1407 694 -98 callsubr
          -92 callsubr
          -146 -1364 -2 callsubr
        </CharString>
        <CharString name="Kacute">
          1407 694 -98 callsubr
          -92 callsubr
          -146 -1364 -2 callsubr
        </CharString>
        <CharString name="Kacyrillic">
          1407 493 169 -2 callsubr
        </CharString>
        <CharString name="Kappagreek">
          1407 493 169 -2 callsubr
        </CharString>
        <CharString name="Kcaron">
          1407 989 -40 callsubr
          -11 callsubr
          150 0 207 281 rlineto
          -549 -1663 -2 callsubr
        </CharString>
        <CharString name="Kcommaaccent">
          151 callsubr
          255 -624 -55 callsubr
          55 callsubr
        </CharString>
        <CharString name="Kdotbelow">
          151 callsubr
          263 -339 -41 callsubr
          66 -43 callsubr
        </CharString>
        <CharString name="Klinebelow">
          151 callsubr
          -9 -520 -79 callsubr
        </CharString>
        <CharString name="L">
          4 callsubr
          endchar
        </CharString>
        <CharString name="Lacute">
          1159 288 -60 callgsubr
          871 -1533 rmoveto
          -15 callsubr
          -1 callsubr
          endchar
        </CharString>
        <CharString name="Lambdagreek">
          1387 1203 252 rmoveto
          -421 1196 -177 0 -412 -1184 -61 -173 -39 -32 -98 -16 rlinecurve
          -43 387 43 vlineto
          -141 20 -20 42 53 163 rrcurveto
          301 918 311 -941 48 -145 -33 -39 -124 -18 rlinecurve
          -43 616 43 vlineto
          -91 15 -42 32 -57 162 rrcurveto
          endchar
        </CharString>
        <CharString name="Lcaron">
          1159 862 1122 rmoveto
          211 409 -210 0 -44 -409 rlineto
          286 -1122 rmoveto
          -15 callsubr
          -1 callsubr
          endchar
        </CharString>
        <CharString name="Lcircumflexbelow">
          4 callsubr
          341 -449 -42 callsubr
          7 callsubr
        </CharString>
        <CharString name="Lcommaaccent">
          4 callsubr
          561 -455 rmoveto
          134 182 callsubr
          18 29 7 31 hhcurveto
          60 -85 callgsubr
          123 callsubr
        </CharString>
        <CharString name="Ldot">
          4 callsubr
          802 688 rmoveto
          78 63 58 76 77 -63 57 -78 -78 -63 -57 -77 -76 63 -58 78 hvcurveto
          endchar
        </CharString>
        <CharString name="Ldotbelow">
          4 callsubr
          568 -170 -41 callsubr
          -12 callgsubr
        </CharString>
        <CharString name="Ldotbelowmacron">
          1159 80 -48 callsubr
          1025 -1720 rmoveto
          -15 callsubr
          -1 callsubr
          568 -170 -41 callsubr
          -12 callgsubr
        </CharString>
        <CharString name="Ljecyrillic">
          2078 41 callgsubr
          425 -1213 hlineto
          -89 -21 -23 -116 -20 vhcurveto
          -43 616 vlineto
          380 214 177 260 272 -230 151 -370 hvcurveto
          -171 394 hlineto
          99 21 30 127 18 vhcurveto
          43 -1129 100 callgsubr
          -459 -29 -288 -86 -136 rlinecurve
          81 -66 67 -81 -85 -65 -67 -85 vhcurveto
          1677 301 rmoveto
          -219 -104 -148 -236 -9 vhcurveto
          -111 -3 0 755 105 -2 rlineto
          227 -5 119 -142 -227 vvcurveto
          endchar
        </CharString>
        <CharString name="Llinebelow">
          4 callsubr
          296 -351 -79 callsubr
        </CharString>
        <CharString name="Lslash">
          1159 54 635 rmoveto
          138 38 rlineto
          -498 -79 callgsubr
          1051 vlineto
          -15 callsubr
          rrcurveto
          -161 -7 0 707 338 94 0 59 -338 -94 rlineto
          441 vlineto
          96 21 30 133 callsubr
          -536 vlineto
          -138 -38 rlineto
          endchar
        </CharString>
        <CharString name="M">
          1817 518 1444 43 callsubr
        </CharString>
        <CharString name="Macute">
          1817 849 -98 callsubr
          -92 callsubr
          -276 -89 43 callsubr
        </CharString>
        <CharString name="Mdotaccent">
          1817 904 12 callsubr
          -67 -65 callgsubr
          -386 -115 43 callsubr
        </CharString>
        <CharString name="Mdotbelow">
          1817 518 1444 rmoveto
          -444 -43 hlineto
          105 -19 29 -37 -4 -104 rrcurveto
          -37 -985 -7 -157 -20 -38 -122 -18 rlinecurve
          -43 377 44 vlineto
          -124 19 -18 36 2 158 rrcurveto
          8 1019 466 -1276 140 0 87 290 356 983 32 -1100 3 -91 -24 -22 -113 -17 rlinecurve
          -43 572 43 vlineto
          -117 18 -18 22 -3 92 rrcurveto
          -36 1094 -2 89 23 25 113 18 rlinecurve
          43 vlineto
          -452 1 -371 -1117 rlineto
          -121 -498 -45 callsubr
          -43 callsubr
        </CharString>
        <CharString name="Mugreek">
          1817 518 1444 43 callsubr
        </CharString>
        <CharString name="N">
          1462 -46 callsubr
          -18 callsubr
          endchar
        </CharString>
        <CharString name="Nacute">
          1462 708 -98 callsubr
          -92 callsubr
          -179 -89 0 callsubr
          -18 callsubr
          endchar
        </CharString>
        <CharString name="Ncaron">
          1462 1003 -40 callsubr
          -11 callsubr
          94 callsubr
          -581 -388 0 callsubr
          -18 callsubr
          endchar
        </CharString>
        <CharString name="Ncircumflexbelow">
          1462 -46 callsubr
          -18 callsubr
          -745 -768 -42 callsubr
          51 0 -210 330 -135 0 -211 -330 rlineto
          endchar
        </CharString>
        <CharString name="Ncommaaccent">
          1462 -46 callsubr
          -18 callsubr
          -526 -774 -55 callsubr
          55 callsubr
        </CharString>
        <CharString name="Ndotaccent">
          1462 763 128 callsubr
          -65 callgsubr
          -289 -115 0 callsubr
          -18 callsubr
          endchar
        </CharString>
        <CharString name="Ndotbelow">
          1462 -46 callsubr
          -18 callsubr
          -518 -489 -41 callsubr
          66 -43 callsubr
        </CharString>
        <CharString name="Ngrave">
          1462 843 1532 rmoveto
          53 -95 callgsubr
          -13 -363 0 callsubr
          -18 callsubr
          endchar
        </CharString>
        <CharString name="Njecyrillic">
          2179 493 169 rmoveto
          587 540 -587 vlineto
          -86 -21 -21 -109 -19 vhcurveto
          -43 608 vlineto
          382 212 166 245 258 -230 143 -370 hvcurveto
          -171 442 hlineto
          99 21 30 128 18 vhcurveto
          43 -580 -44 vlineto
          109 -18 21 -22 -85 vvcurveto
          -463 -540 463 -14 callsubr
          -107 callsubr
          -47 callsubr
          1294 238 rmoveto
          -206 -105 -137 -236 -9 vhcurveto
          -112 -3 0 707 107 -3 rlineto
          226 -5 120 -132 -212 vvcurveto
          endchar
        </CharString>
        <CharString name="Nlinebelow">
          1462 -46 callsubr
          -18 callsubr
          -790 -670 -79 callsubr
        </CharString>
        <CharString name="Ntilde">
          1462 876 -9 callsubr
          -67 callgsubr
          97 callsubr
          85 callsubr
          18 callsubr
          -402 -108 0 callsubr
          -18 callsubr
          endchar
        </CharString>
        <CharString name="Nugreek">
          1462 -46 callsubr
          -18 callsubr
          endchar
        </CharString>
        <CharString name="O">
          -6 callsubr
          5 callsubr
          -103 callsubr
        </CharString>
        <CharString name="OE">
          2061 88 719 rmoveto
          -441 348 -300 411 vhcurveto
          141 111 22 141 hhcurveto
          748 hlineto
          15 410 rlineto
          -40 hlineto
          -59 -273 -81 -64 -285 -14 rrcurveto
          -218 -9 0 664 229 -5 125 -5 29 -51 28 -151 rlinecurve
          39 475 -39 hlineto
          -30 -152 -28 -50 -124 -5 rrcurveto
          -229 -6 0 630 185 -8 273 -13 84 -66 57 -235 rlinecurve
          40 hlineto
          -14 372 rlineto
          -703 hlineto
          -168 -75 22 -147 hhcurveto
          -464 -300 -327 -420 hvcurveto
          326 7 rmoveto
          395 147 284 307 57 53 -8 -21 41 vhcurveto
          -1313 vlineto
          -17 -43 -54 -7 -55 hhcurveto
          -278 -175 284 403 hvcurveto
          endchar
        </CharString>
        <CharString name="Oacute">
          87 callgsubr
          5 callsubr
          -103 callsubr
        </CharString>
        <CharString name="Obreve">
          1668 830 1575 rmoveto
          173 -70 callgsubr
          -84 callgsubr
          20 callgsubr
          -742 -854 -106 callsubr
          -103 callsubr
        </CharString>
        <CharString name="Ocaron">
          1668 1069 3 callsubr
          -1034 -1111 -106 callsubr
          -103 callsubr
        </CharString>
        <CharString name="Ocircumflex">
          1668 614 -61 callsubr
          77 callsubr
          32 callsubr
          -473 -811 -106 callsubr
          -103 callsubr
        </CharString>
        <CharString name="Ocircumflexacute">
          1668 1110 1828 29 callsubr
          -245 vmoveto
          -73 callgsubr
          -262 -91 callgsubr
          -461 -819 -106 callsubr
          -103 callsubr
        </CharString>
        <CharString name="Ocircumflexdotbelow">
          1668 614 -61 callsubr
          77 callsubr
          32 callsubr
          -473 -811 -106 callsubr
          455 -346 287 -403 89 callsubr
          vhcurveto
          334 14 rmoveto
          392 117 278 287 67 callsubr
          419 -905 -16 callsubr
        </CharString>
        <CharString name="Ocircumflexgrave">
          1668 549 135 callsubr
          -73 callgsubr
          -262 -91 callgsubr
          -461 -819 -106 callsubr
          -103 callsubr
        </CharString>
        <CharString name="Ocircumflexhookabove">
          1668 1069 1919 rmoveto
          -80 -58 -35 -39 -32 26 callgsubr
          -520 -417 rmoveto
          -73 callgsubr
          -262 -91 callgsubr
          -461 -819 -106 callsubr
          -103 callsubr
        </CharString>
        <CharString name="Ocircumflextilde">
          1668 948 1778 -96 callgsubr
          -47 -1 -29 -20 -81 callgsubr
          10 rlineto
          13 117 callsubr
          -6 -13 140 callsubr
          -399 -276 rmoveto
          -73 callgsubr
          -262 -91 callgsubr
          -461 -819 -106 callsubr
          -103 callsubr
        </CharString>
        <CharString name="Ocyrillic">
          -6 callsubr
          5 callsubr
          -103 callsubr
        </CharString>
        <CharString name="Odblgrave">
          1668 651 161 callsubr
          -953 -811 -106 callsubr
          -103 callsubr
        </CharString>
        <CharString name="Odieresis">
          1668 667 1562 rmoveto
          63 51 49 62 63 -51 47 -63 -58 callsubr
          17 callsubr
          -64 -50 -47 -63 -62 50 -49 64 hvcurveto
          -905 -841 -106 callsubr
          -103 callsubr
        </CharString>
        <CharString name="Odieresismacron">
          88 callgsubr
          132 -367 rmoveto
          138 callsubr
          -53 98 callsubr
          33 callsubr
          -53 98 callsubr
          -891 -839 -106 callsubr
          -103 callsubr
        </CharString>
        <CharString name="Odotaccent">
          1668 830 -30 callsubr
          -742 -838 -106 callsubr
          -103 callsubr
        </CharString>
        <CharString name="Odotaccentmacron">
          1668 548 1800 rmoveto
          563 104 -563 hlineto
          282 -350 62 callgsubr
          -742 -833 -106 callsubr
          -103 callsubr
        </CharString>
        <CharString name="Odotbelow">
          -6 callsubr
          5 callsubr
          455 -346 287 -403 89 callsubr
          vhcurveto
          334 14 rmoveto
          392 117 278 287 67 callsubr
          419 -905 -16 callsubr
        </CharString>
        <CharString name="Ograve">
          1668 909 76 callsubr
          -466 -1086 -106 callsubr
          -103 callsubr
        </CharString>
        <CharString name="Ohookabove">
          1668 860 69 callsubr
          24 42 22 callsubr
          -71 callgsubr
          -68 52 -99 vhcurveto
          -772 -1137 -106 callsubr
          -103 callsubr
        </CharString>
        <CharString name="Ohorn">
          1684 88 721 -106 callsubr
          45 callsubr
        </CharString>
        <CharString name="Ohornacute">
          1684 775 -98 callsubr
          -92 callsubr
          -632 -812 -106 callsubr
          45 callsubr
        </CharString>
        <CharString name="Ohorndotbelow">
          1684 88 721 -106 callsubr
          326 -182 241 -249 109 vhcurveto
          -8 39 44 -5 44 hhcurveto
          169 117 61 120 1 hvcurveto
          97 -75 88 -111 41 vhcurveto
          -44 hlineto
          22 -25 17 -55 -1 -54 rrcurveto
          -125 -87 -92 -163 vhcurveto
          -88 -89 23 -113 177 callsubr
          67 callsubr
          417 -905 -45 callsubr
          -43 callsubr
        </CharString>
        <CharString name="Ohorngrave">
          1684 910 1532 rmoveto
          53 -95 callgsubr
          -466 -1086 -106 callsubr
          45 callsubr
        </CharString>
        <CharString name="Ohornhookabove">
          1684 860 69 callsubr
          24 42 22 callsubr
          70 callsubr
          -772 -1137 -106 callsubr
          45 callsubr
        </CharString>
        <CharString name="Ohorntilde">
          1684 943 -9 callsubr
          -67 callgsubr
          -42 hhcurveto
          -29 99 callgsubr
          85 callsubr
          18 callsubr
          -855 -831 -106 callsubr
          45 callsubr
        </CharString>
        <CharString name="Ohungarumlaut">
          1668 694 72 callgsubr
          110 -1 rmoveto
          -120 -281 60 0 315 276 rlineto
          6 vlineto
          -1206 -1093 -106 callsubr
          -103 callsubr
        </CharString>
        <CharString name="Oinvertedbreve">
          1668 829 1879 rmoveto
          -175 -90 -127 -127 -17 2 -18 144 callsubr
          124 91 -64 -93 vhcurveto
          -4 47 vlineto
          2 16 1 142 callsubr
          -741 -1158 -106 callsubr
          -103 callsubr
        </CharString>
        <CharString name="Omacron">
          1668 566 -48 callsubr
          -478 -999 -106 callsubr
          -103 callsubr
        </CharString>
        <CharString name="Omacronacute">
          1668 1110 -32 callgsubr
          -1 -178 rmoveto
          563 103 -563 hlineto
          -460 -973 -106 callsubr
          -103 callsubr
        </CharString>
        <CharString name="Omacrongrave">
          1668 549 64 callsubr
          -1 -392 rmoveto
          563 103 -563 hlineto
          -460 -973 -106 callsubr
          -103 callsubr
        </CharString>
        <CharString name="Omegagreek">
          1597 85 hmoveto
          613 309 hlineto
          -216 93 callgsubr
          274 149 -223 -333 -270 -104 -199 -217 -71 vhcurveto
          -309 612 vlineto
          50 392 rlineto
          -34 hlineto
          -72 -170 -157 -46 -345 81 callgsubr
          -287 267 -443 -443 -281 50 callgsubr
          -163 44 -75 172 rrcurveto
          -35 hlineto
          endchar
        </CharString>
        <CharString name="Omegatonosgreek">
          1726 214 hmoveto
          612 309 hlineto
          -215 93 callgsubr
          273 150 -223 -333 -270 -105 -199 -216 -71 vhcurveto
          -309 612 vlineto
          50 392 rlineto
          -35 hlineto
          -71 -170 -158 -46 -344 81 callgsubr
          -288 267 -443 -443 -280 50 callgsubr
          -164 44 -74 172 rrcurveto
          -35 hlineto
          -104 685 -43 callgsubr
          endchar
        </CharString>
        <CharString name="Omicrongreek">
          -6 callsubr
          5 callsubr
          -103 callsubr
        </CharString>
        <CharString name="Omicrontonosgreek">
          1744 163 721 rmoveto
          -455 345 -288 404 448 296 330 416 455 89 callgsubr
          -103 356 -43 callgsubr
          493 -342 rmoveto
          392 116 278 288 259 161 -289 -406 -392 -117 -279 -287 -260 -160 290 406 vhcurveto
          endchar
        </CharString>
        <CharString name="Oogonek">
          -6 callsubr
          198 callsubr
        </CharString>
        <CharString name="Oogonekmacron">
          1668 566 -48 callsubr
          -478 -999 rmoveto
          198 callsubr
        </CharString>
        <CharString name="Oslash">
          -6 callsubr
          186 callsubr
        </CharString>
        <CharString name="Oslashacute">
          87 callgsubr
          186 callsubr
        </CharString>
        <CharString name="Otilde">
          1668 943 -9 callsubr
          -10 hvcurveto
          -49 hlineto
          -89 -4 -26 -29 -42 hhcurveto
          -29 -23 11 24 -37 hvcurveto
          -30 46 callgsubr
          225 callsubr
          -855 -831 -106 callsubr
          -103 callsubr
        </CharString>
        <CharString name="Otildeacute">
          1668 1110 -38 callsubr
          38 callsubr
          399 -202 -96 callgsubr
          -48 -1 -29 -19 -81 callgsubr
          11 rlineto
          12 117 callsubr
          -7 -12 140 callsubr
          -860 -845 -106 callsubr
          -103 callsubr
        </CharString>
        <CharString name="Otildedieresis">
          1668 680 1793 rmoveto
          174 callsubr
          315 hmoveto
          174 callsubr
          -31 -227 -96 callgsubr
          -48 -1 -29 -19 -81 callgsubr
          11 rlineto
          12 117 callsubr
          -7 -12 140 callsubr
          -860 -845 -106 callsubr
          -103 callsubr
        </CharString>
        <CharString name="Otildemacron">
          88 callgsubr
          400 -361 -96 callgsubr
          -48 -1 -29 -19 -81 callgsubr
          11 rlineto
          12 117 callsubr
          -7 -12 140 callsubr
          -860 -845 -106 callsubr
          -103 callsubr
        </CharString>
        <CharString name="P">
          1343 1264 1028 44 callsubr
        </CharString>
        <CharString name="Pacute">
          1343 584 -98 callsubr
          -92 callsubr
          735 -505 44 callsubr
        </CharString>
        <CharString name="Pdotaccent">
          1343 639 128 callsubr
          -65 callgsubr
          625 -531 44 callsubr
        </CharString>
        <CharString name="Pecyrillic">
          1607 1415 175 rmoveto
          1094 vlineto
          89 21 23 117 20 vhcurveto
          43 -1499 26 callsubr
          -107 callsubr
          -47 callsubr
          1220 621 -1220 vlineto
          -86 -21 -21 -109 -19 vhcurveto
          -43 569 43 vlineto
          -117 20 -21 23 89 vvcurveto
          endchar
        </CharString>
        <CharString name="Phigreek">
          1877 75 721 rmoveto
          -324 287 -186 435 -12 vhcurveto
          -9 -78 callgsubr
          580 -88 callgsubr
          9 vlineto
          414 12 308 173 338 vvcurveto
          324 -292 186 -430 13 vhcurveto
          9 vlineto
          99 22 30 127 18 vhcurveto
          43 -580 -43 vlineto
          127 -18 21 -30 -99 vvcurveto
          -9 vlineto
          -409 -12 -313 -171 -341 vvcurveto
          1420 -1 rmoveto
          -271 -163 -176 -252 -19 vhcurveto
          937 vlineto
          271 -19 144 -180 -272 vvcurveto
          -1113 6 rmoveto
          268 161 177 254 20 vhcurveto
          -938 vlineto
          -268 19 -147 179 275 vvcurveto
          endchar
        </CharString>
        <CharString name="Pigreek">
          1578 1386 111 callgsubr
          -1470 26 callsubr
          -107 callsubr
          -47 callsubr
          1220 592 -1220 87 callsubr
          569 43 vlineto
          -116 20 -22 23 89 vvcurveto
          endchar
        </CharString>
        <CharString name="Psigreek">
          1836 1060 190 rmoveto
          335 vlineto
          329 9 186 117 47 336 rrcurveto
          33 239 18 126 34 33 89 4 rlinecurve
          44 vlineto
          5 -31 -60 6 -55 hhcurveto
          -160 -85 -62 -194 -28 hvcurveto
          -35 -247 -36 -245 -74 -103 -172 -14 rlinecurve
          696 vlineto
          86 21 21 108 18 vhcurveto
          44 -543 -44 vlineto
          109 -18 21 -21 -86 vvcurveto
          -696 vlineto
          -172 14 -74 103 -36 245 -35 247 rcurveline
          194 -28 -86 62 -160 hhcurveto
          -54 -61 -6 -5 -31 hvcurveto
          -44 vlineto
          90 -4 35 -33 17 -126 rrcurveto
          32 -239 47 -337 187 -116 329 -9 rlinecurve
          -335 vlineto
          -99 -20 -30 -128 -18 vhcurveto
          -43 580 83 callsubr
          endchar
        </CharString>
        <CharString name="Q">
          -6 callsubr
          -417 290 -278 360 -42 vhcurveto
          142 -131 rlineto
          -175 183 95 -42 129 hhcurveto
          108 102 36 53 86 hvcurveto
          40 vlineto
          -117 -16 -107 40 -189 150 -92 74 rcurveline
          310 96 193 280 335 vvcurveto
          455 89 callgsubr
          334 14 rmoveto
          392 116 278 287 260 162 -289 -406 -1 vhcurveto
          -392 -117 -279 -286 -260 -161 290 406 vhcurveto
          endchar
        </CharString>
        <CharString name="R">
          1380 1244 1056 149 callsubr
          endchar
        </CharString>
        <CharString name="Racute">
          1380 599 -98 callsubr
          -92 callsubr
          700 -477 149 callsubr
          endchar
        </CharString>
        <CharString name="Rcaron">
          1380 894 -40 callsubr
          -58 callgsubr
          297 -776 149 callsubr
          endchar
        </CharString>
        <CharString name="Rcommaaccent">
          -39 callgsubr
          -236 -1494 rmoveto
          134 94 67 105 105 -85 64 -115 -85 -61 -39 -45 -29 hvcurveto
          -38 vlineto
          8 18 21 callsubr
          123 callsubr
        </CharString>
        <CharString name="Rdblgrave">
          1380 476 5 callgsubr
          378 -476 149 callsubr
          endchar
        </CharString>
        <CharString name="Rdotaccent">
          1380 654 12 callsubr
          -66 -54 -49 -65 -64 54 -50 66 hvcurveto
          590 -503 149 callsubr
          endchar
        </CharString>
        <CharString name="Rdotbelow">
          -39 callgsubr
          -228 -1209 -16 callsubr
        </CharString>
        <CharString name="Rdotbelowmacron">
          1380 390 -24 callgsubr
          854 -664 149 callsubr
          -228 -1209 -16 callsubr
        </CharString>
        <CharString name="Rhogreek">
          1343 1264 1028 44 callsubr
        </CharString>
        <CharString name="Rinvertedbreve">
          1380 654 4 callgsubr
          3 16 1 142 callsubr
          590 -823 149 callsubr
          endchar
        </CharString>
        <CharString name="Rlinebelow">
          -39 callgsubr
          -501 -1390 -79 callsubr
        </CharString>
        <CharString name="S">
          1206 578 -22 102 callsubr
          endchar
        </CharString>
        <CharString name="Sacute">
          1206 573 -98 callsubr
          -74 callgsubr
          59 -1555 102 callsubr
          endchar
        </CharString>
        <CharString name="Sacutedotaccent">
          1206 629 1760 rmoveto
          57 44 39 49 51 -44 38 -57 -57 -45 -38 -51 -49 44 -39 58 hvcurveto
          280 -136 29 callsubr
          230 -1565 102 callsubr
          endchar
        </CharString>
        <CharString name="Scaron">
          1206 868 3 callsubr
          -343 -1854 102 callsubr
          endchar
        </CharString>
        <CharString name="Scarondotaccent">
          1206 629 1781 62 callgsubr
          287 -15 rmoveto
          -287 -84 -288 84 0 -38 270 -177 37 0 268 177 rlineto
          -338 -1750 102 callsubr
          endchar
        </CharString>
        <CharString name="Scedilla">
          1206 565 -455 rmoveto
          -24 callsubr
          -98 callgsubr
          68 86 rlineto
          284 14 221 163 261 vvcurveto
          209 -123 146 -254 88 vhcurveto
          -120 42 rlineto
          -172 61 -93 78 134 vvcurveto
          135 96 95 179 183 132 -134 -228 51 vhcurveto
          41 hlineto
          -10 333 rlineto
          49 -70 -140 41 -187 hhcurveto
          -315 -224 -151 -262 -205 132 -143 243 -82 hvcurveto
          121 -42 rlineto
          185 -65 81 -88 -135 vvcurveto
          -153 -114 -101 -169 -205 -177 143 265 -57 vhcurveto
          -41 hlineto
          14 -366 92 -57 161 -43 197 -3 rlinecurve
          -124 -154 -45 callgsubr
          84 callsubr
          78 -37 93 hhcurveto
          endchar
        </CharString>
        <CharString name="Schwa">
          1499 689 -22 rmoveto
          456 266 309 439 490 -336 252 -429 -229 -164 -42 -55 -82 hvcurveto
          -11 -365 rlineto
          41 hlineto
          236 52 148 164 231 hhcurveto
          284 166 -257 -423 hvcurveto
          -14 -1 -14 -13 vvcurveto
          -1016 hlineto
          -3 -26 -4 -34 -32 vvcurveto
          -366 224 -249 407 vhcurveto
          -331 575 rmoveto
          24 1 27 2 24 vhcurveto
          718 4 rlineto
          -340 -17 -112 -253 -258 hhcurveto
          -255 -79 249 265 hvcurveto
          endchar
        </CharString>
        <CharString name="Scircumflex">
          1206 413 -61 callsubr
          77 callsubr
          32 callsubr
          218 -1554 102 callsubr
          endchar
        </CharString>
        <CharString name="Scommaaccent">
          1206 578 -22 102 callsubr
          6 -433 -55 callsubr
          -86 64 -115 -85 -60 -39 -45 -29 hvcurveto
          -38 vlineto
          8 227 callsubr
          -64 -53 236 callsubr
        </CharString>
        <CharString name="Sdotaccent">
          1206 629 -30 callsubr
          -51 -1581 102 callsubr
          endchar
        </CharString>
        <CharString name="Sdotbelow">
          1206 578 -22 102 callsubr
          14 -148 -45 callsubr
          -43 callsubr
        </CharString>
        <CharString name="Sdotbelowdotaccent">
          1206 629 -30 callsubr
          -51 -1581 102 callsubr
          14 -148 -45 callsubr
          -43 callsubr
        </CharString>
        <CharString name="Shacyrillic">
          2325 2133 175 rmoveto
          1094 vlineto
          78 callsubr
          102 callgsubr
          109 -18 21 175 callsubr
          -78 callsubr
          -107 callsubr
          2217 43 vlineto
          -117 20 -21 23 89 vvcurveto
          endchar
        </CharString>
        <CharString name="Shchacyrillic">
          2357 2314 55 rmoveto
          -181 1214 hlineto
          78 callsubr
          102 callgsubr
          108 -18 22 175 callsubr
          -78 callsubr
          -107 callsubr
          1881 vlineto
          215 48 -51 -284 79 hvcurveto
          46 hlineto
          endchar
        </CharString>
        <CharString name="Sigmagreek">
          108 callgsubr
          506 -725 -496 -527 rlineto
          -151 1119 vlineto
          16 470 rlineto
          -45 hlineto
          -215 -56 -77 -41 -298 hhcurveto
          -524 hlineto
          597 584 0 17 -398 579 264 -9 314 -12 79 -71 57 -229 rlinecurve
          41 hlineto
          endchar
        </CharString>
        <CharString name="Softsigncyrillic">
          1338 1264 173 callsubr
          133 callsubr
          -107 callsubr
          616 vlineto
          380 214 177 260 hvcurveto
          -319 -6 43 callgsubr
        </CharString>
        <CharString name="T">
          1325 -49 callsubr
          -67 callsubr
          -57 callsubr
          -56 callsubr
          31 callsubr
          endchar
        </CharString>
        <CharString name="Taugreek">
          1325 -49 callsubr
          -67 callsubr
          -57 callsubr
          -56 callsubr
          31 callsubr
          endchar
        </CharString>
        <CharString name="Tbar">
          1325 239 713 rmoveto
          273 -523 hlineto
          -99 -21 -30 -127 -18 vhcurveto
          -43 -56 callsubr
          523 274 54 -274 627 240 callsubr
          -14 373 -1217 0 -14 -67 callsubr
          -627 -273 vlineto
          endchar
        </CharString>
        <CharString name="Tcaron">
          1325 902 3 callsubr
          316 -388 rmoveto
          -1217 hlineto
          -14 -67 callsubr
          -57 callsubr
          -56 callsubr
          31 callsubr
          endchar
        </CharString>
        <CharString name="Tcedilla">
          1325 636 -455 rmoveto
          -24 callsubr
          -94 66 -111 -14 -15 -1 -2 -13 hvcurveto
          80 107 rlineto
          265 43 hlineto
          -128 18 -21 30 99 vvcurveto
          31 callsubr
          -14 373 -1217 0 -14 -67 callsubr
          -57 callsubr
          278 vlineto
          -135 -176 rlineto
          -37 vlineto
          5 10 21 4 18 hhcurveto
          60 44 -28 -49 -49 -44 -29 -61 -47 -50 14 21 -26 hvcurveto
          -1 -42 rlineto
          -52 34 78 -37 93 hhcurveto
          endchar
        </CharString>
        <CharString name="Tcircumflexbelow">
          1325 -49 callsubr
          -67 callsubr
          -57 callsubr
          -56 callsubr
          31 callsubr
          -850 -1520 -42 callsubr
          7 callsubr
        </CharString>
        <CharString name="Tcommaaccent">
          1325 -49 callsubr
          -67 callsubr
          -57 callsubr
          -56 callsubr
          31 callsubr
          -630 -1526 rmoveto
          134 95 67 105 105 100 callsubr
          -29 hvcurveto
          -38 vlineto
          8 18 21 callsubr
          -54 -50 126 callsubr
        </CharString>
        <CharString name="Tdotaccent">
          1325 663 -30 callsubr
          608 -115 rmoveto
          -1217 hlineto
          -14 -67 callsubr
          -57 callsubr
          -56 callsubr
          31 callsubr
          endchar
        </CharString>
        <CharString name="Tdotbelow">
          1325 -49 callsubr
          -67 callsubr
          -57 callsubr
          -56 callsubr
          31 callsubr
          -622 -1241 -16 callsubr
        </CharString>
        <CharString name="Tecyrillic">
          1325 -49 callsubr
          -67 callsubr
          -57 callsubr
          -56 callsubr
          31 callsubr
          endchar
        </CharString>
        <CharString name="Thetagreek">
          1676 840 -22 rmoveto
          451 297 330 416 454 -348 288 -403 -453 -297 -330 -416 -454 348 -288 405 hvcurveto
          5 57 rmoveto
          -274 -166 285 415 403 123 271 303 274 167 -282 -417 -403 -124 -272 -303 hvcurveto
          -284 456 rmoveto
          35 hlineto
          136 21 45 67 145 hhcurveto
          62 hlineto
          145 46 -67 -136 20 hvcurveto
          36 461 -36 hlineto
          -133 -20 -46 -65 -145 hhcurveto
          -62 hlineto
          -145 -45 65 133 -21 hvcurveto
          -35 hlineto
          endchar
        </CharString>
        <CharString name="Thorn">
          1325 1266 750 rmoveto
          264 -238 125 -391 vhcurveto
          -144 115 hlineto
          99 21 30 133 callsubr
          -107 callsubr
          -22 callsubr
          147 144 vlineto
          365 264 142 271 hvcurveto
          -320 -17 rmoveto
          -209 -135 -125 -237 -9 vhcurveto
          -81 -3 0 702 81 -2 rlineto
          246 -10 126 -142 -202 vvcurveto
          endchar
        </CharString>
        <CharString name="Tlinebelow">
          1325 -49 callsubr
          -67 callsubr
          -57 callsubr
          -56 callsubr
          31 callsubr
          -895 -1422 -79 callsubr
        </CharString>
        <CharString name="Tsecyrillic">
          1639 1597 55 rmoveto
          -182 1214 hlineto
          78 callsubr
          -44 vlineto
          109 -18 21 -22 -85 vvcurveto
          -1220 -621 1220 -14 callsubr
          -107 callsubr
          1164 vlineto
          214 48 -51 -284 79 hvcurveto
          46 hlineto
          endchar
        </CharString>
        <CharString name="Tshecyrillic">
          1785 -49 callsubr
          218 callsubr
          505 vlineto
          40 66 83 18 100 hhcurveto
          191 97 -114 -230 hvcurveto
          -401 431 43 vlineto
          -109 19 -21 21 86 vvcurveto
          223 vlineto
          308 -206 129 -281 -151 -122 -34 -53 -78 vhcurveto
          650 103 callgsubr
        </CharString>
        <CharString name="U">
          1488 163 1274 -88 callsubr
        </CharString>
        <CharString name="Uacute">
          1488 766 -98 callsubr
          -92 callsubr
          -548 -259 -88 callsubr
        </CharString>
        <CharString name="Ubreve">
          1488 821 162 callsubr
          134 callsubr
          -658 -301 -88 callsubr
        </CharString>
        <CharString name="Ubrevecyrillic">
          1413 805 1575 rmoveto
          -29 callgsubr
          -62 -46 157 callsubr
          -46 -17 callgsubr
          -578 -1446 191 callsubr
        </CharString>
        <CharString name="Ucaron">
          1488 1061 -40 callsubr
          -11 callsubr
          94 callsubr
          -950 -558 -88 callsubr
        </CharString>
        <CharString name="Ucircumflex">
          1488 605 -61 callsubr
          -50 callsubr
          -390 -258 -88 callsubr
        </CharString>
        <CharString name="Ucircumflexbelow">
          119 callsubr
          404 -1723 -42 callsubr
          7 callsubr
        </CharString>
        <CharString name="Ucyrillic">
          1413 227 129 191 callsubr
        </CharString>
        <CharString name="Udblgrave">
          1488 642 161 callsubr
          -869 -258 -88 callsubr
        </CharString>
        <CharString name="Udieresis">
          1488 658 1562 rmoveto
          25 callsubr
          -39 callsubr
          17 callsubr
          -58 callsubr
          -821 -288 -88 callsubr
        </CharString>
        <CharString name="Udieresisacute">
          1488 1101 -38 callsubr
          38 callsubr
          131 -208 -29 callsubr
          98 callsubr
          33 callsubr
          -53 98 callsubr
          -807 -286 -88 callsubr
        </CharString>
        <CharString name="Udieresisbelow">
          119 callsubr
          429 -1673 rmoveto
          69 55 50 64 65 -55 49 -69 -68 -56 -49 -65 -64 56 -50 68 hvcurveto
          405 hmoveto
          67 callgsubr
          endchar
        </CharString>
        <CharString name="Udieresiscaron">
          1488 1101 1979 rmoveto
          -281 -81 -280 81 0 -37 263 -170 36 0 262 170 rlineto
          -430 -382 -29 callsubr
          98 callsubr
          33 callsubr
          -53 98 callsubr
          -807 -286 -88 callsubr
        </CharString>
        <CharString name="Udieresisgrave">
          1488 541 1849 -15 callgsubr
          130 -423 -29 callsubr
          98 callsubr
          33 callsubr
          -53 98 callsubr
          -807 -286 -88 callsubr
        </CharString>
        <CharString name="Udieresismacron">
          1488 540 -107 callgsubr
          131 -367 -29 callsubr
          98 callsubr
          33 callsubr
          -53 98 callsubr
          -807 -286 -88 callsubr
        </CharString>
        <CharString name="Udotbelow">
          119 callsubr
          632 -1444 -16 callsubr
        </CharString>
        <CharString name="Ugrave">
          1488 901 -59 callgsubr
          -383 -533 -88 callsubr
        </CharString>
        <CharString name="Uhookabove">
          1488 851 69 callsubr
          25 41 22 callsubr
          70 callsubr
          -688 -584 -88 callsubr
        </CharString>
        <CharString name="Uhorn">
          1628 172 548 42 callsubr
        </CharString>
        <CharString name="Uhornacute">
          1628 787 -98 callsubr
          -92 callsubr
          -560 -985 42 callsubr
        </CharString>
        <CharString name="Uhorndotbelow">
          1628 172 548 rmoveto
          -403 275 -167 318 361 201 221 337 3 vhcurveto
          7 877 rlineto
          -4 22 24 -3 24 hhcurveto
          144 86 62 104 93 -70 88 -109 41 hvcurveto
          -43 hlineto
          21 -25 17 -53 -55 vvcurveto
          -121 -1 -88 -96 -184 hhcurveto
          -80 -44 hlineto
          140 -20 18 -25 -129 vvcurveto
          6 -681 rlineto
          -289 2 -154 -173 -242 hhcurveto
          -235 -162 145 324 hvcurveto
          713 vlineto
          92 21 23 137 21 vhcurveto
          43 -605 -43 vlineto
          124 -21 22 -23 -92 vvcurveto
          635 -1435 -41 callsubr
          66 -43 callsubr
        </CharString>
        <CharString name="Uhorngrave">
          1628 922 76 callsubr
          -395 -1259 42 callsubr
        </CharString>
        <CharString name="Uhornhookabove">
          1628 872 -61 callgsubr
          41 17 48 hhcurveto
          61 40 -8 callgsubr
          -71 callgsubr
          -68 52 -100 vhcurveto
          -700 -1310 42 callsubr
        </CharString>
        <CharString name="Uhorntilde">
          1628 955 1552 rmoveto
          98 179 callsubr
          -36 hvcurveto
          -30 46 callgsubr
          226 callsubr
          -783 -1004 42 callsubr
        </CharString>
        <CharString name="Uhungarumlaut">
          1488 685 72 callgsubr
          111 97 callgsubr
          -1122 -540 -88 callsubr
        </CharString>
        <CharString name="Uinvertedbreve">
          1488 820 1879 rmoveto
          -174 101 callsubr
          144 callsubr
          28 callgsubr
          -657 -605 -88 callsubr
        </CharString>
        <CharString name="Umacron">
          1488 557 -48 callsubr
          -394 -446 -88 callsubr
        </CharString>
        <CharString name="Umacrondieresis">
          1488 671 1793 rmoveto
          -28 callgsubr
          -42 -35 -48 -47 42 -35 53 hvcurveto
          315 hmoveto
          174 callsubr
          -409 -202 rmoveto
          520 103 -520 hlineto
          -398 -420 -88 callsubr
        </CharString>
        <CharString name="Uogonek">
          1488 808 -479 rmoveto
          95 79 50 73 27 hvcurveto
          -1 42 rlineto
          -19 -15 -28 -14 -35 hhcurveto
          -73 -61 81 107 55 12 51 22 34 hvcurveto
          317 29 169 219 5 318 rrcurveto
          9 635 4 162 18 39 116 17 rlinecurve
          44 -372 -44 vlineto
          127 -20 20 -36 3 216 callsubr
          -21 callgsubr
          vhcurveto
          6 6 0 5 hhcurveto
          -99 -72 -65 -96 -101 vvcurveto
          -112 86 -76 114 vhcurveto
          endchar
        </CharString>
        <CharString name="Upsilondieresisgreek">
          1351 596 1562 rmoveto
          25 callsubr
          -39 callsubr
          17 callsubr
          -58 callsubr
          -710 -364 -76 callsubr
          -65 callsubr
        </CharString>
        <CharString name="Upsilongreek">
          1351 212 1198 -76 callsubr
          -65 callsubr
        </CharString>
        <CharString name="Upsilontonosgreek">
          1693 554 1198 -76 callsubr
          -602 -43 vlineto
          91 -17 34 -29 93 -157 rrcurveto
          -494 -121 -43 callgsubr
          endchar
        </CharString>
        <CharString name="Uring">
          1488 574 1722 85 callgsubr
          162 hmoveto
          74 34 52 51 50 34 -53 -73 -76 -34 -50 -50 -51 -34 50 76 vhcurveto
          -573 -448 -88 callsubr
        </CharString>
        <CharString name="Utilde">
          1488 934 -9 callsubr
          -9 hvcurveto
          -49 hlineto
          -89 -5 -26 -29 97 callsubr
          -72 -70 -188 8 hvcurveto
          50 hlineto
          89 18 callsubr
          -771 -278 -88 callsubr
        </CharString>
        <CharString name="Utildeacute">
          1488 1101 -38 callsubr
          38 callsubr
          399 -202 rmoveto
          100 -102 callgsubr
          -29 -19 -48 hhcurveto
          -29 -30 7 12 -40 hvcurveto
          -34 11 rlineto
          12 36 callgsubr
          -7 -12 139 callsubr
          -776 -292 -88 callsubr
        </CharString>
        <CharString name="Utildebelow">
          119 callsubr
          744 -1680 rmoveto
          97 71 69 183 -10 hvcurveto
          -46 hlineto
          -89 -3 -26 -30 -43 hhcurveto
          -29 -23 12 25 -37 hvcurveto
          -29 19 rlineto
          35 -51 -43 20 -53 hhcurveto
          -96 -72 -69 -183 10 hvcurveto
          46 hlineto
          89 4 26 30 42 hhcurveto
          29 24 229 callsubr
        </CharString>
        <CharString name="V">
          107 callgsubr
          endchar
        </CharString>
        <CharString name="Vdotbelow">
          107 callgsubr
          522 -1359 -41 callsubr
          66 -43 callsubr
        </CharString>
        <CharString name="Vecyrillic">
          1386 1308 415 109 callsubr
        </CharString>
        <CharString name="Vtilde">
          1399 896 -9 callsubr
          -67 callgsubr
          97 callsubr
          85 callsubr
          18 callsubr
          -715 -363 rmoveto
          204 callsubr
          endchar
        </CharString>
        <CharString name="W">
          2174 177 1189 -3 callsubr
        </CharString>
        <CharString name="Wacute">
          2174 1110 -98 callsubr
          -92 callsubr
          -878 -344 -3 callsubr
        </CharString>
        <CharString name="Wcircumflex">
          2174 950 82 callsubr
          56 0 -206 281 32 callsubr
          -720 -343 -3 callsubr
        </CharString>
        <CharString name="Wdieresis">
          2174 1003 53 callsubr
          -39 callsubr
          -1151 -373 -3 callsubr
        </CharString>
        <CharString name="Wdotaccent">
          2174 1165 169 callsubr
          -988 -370 -3 callsubr
        </CharString>
        <CharString name="Wdotbelow">
          2174 177 1189 rmoveto
          377 -1193 169 0 367 1178 356 -1178 171 0 368 1152 63 198 35 37 104 18 rlinecurve
          43 -389 -43 vlineto
          138 -21 14 -42 -52 -183 rrcurveto
          -247 -871 -255 909 -45 159 9 30 123 19 rlinecurve
          43 -574 -43 vlineto
          130 -22 16 -29 -47 -165 rrcurveto
          -252 -900 -261 903 -43 152 19 43 130 18 rlinecurve
          43 -611 -43 vlineto
          95 -15 40 -34 52 -163 rrcurveto
          912 -1359 -16 callsubr
        </CharString>
        <CharString name="Wgrave">
          2174 1245 76 callsubr
          -713 -618 -3 callsubr
        </CharString>
        <CharString name="X">
          1386 282 296 41 callsubr
        </CharString>
        <CharString name="Xdieresis">
          1386 612 1562 rmoveto
          63 51 49 62 63 -51 47 -63 -58 callsubr
          326 hmoveto
          63 50 49 62 63 -50 47 -63 -64 -50 -47 -63 -62 50 -49 64 hvcurveto
          -656 -1266 41 callsubr
        </CharString>
        <CharString name="Xdotaccent">
          1386 774 169 callsubr
          -492 -1263 41 callsubr
        </CharString>
        <CharString name="Xigreek">
          1344 1251 1444 rmoveto
          -1157 hlineto
          -18 -406 rlineto
          40 hlineto
          172 50 79 34 263 hhcurveto
          328 hlineto
          263 78 -34 -172 50 hvcurveto
          41 hlineto
          -652 -336 rmoveto
          111 hlineto
          200 48 -50 -146 27 hvcurveto
          38 443 -38 hlineto
          -143 -27 -48 -47 -200 hhcurveto
          -111 hlineto
          -200 -48 47 143 -27 hvcurveto
          -38 -443 38 hlineto
          146 27 48 50 200 hhcurveto
          654 -702 rmoveto
          17 453 rlineto
          -41 hlineto
          -209 -52 -77 -37 -291 hhcurveto
          -309 hlineto
          -291 -77 37 209 -52 hvcurveto
          -41 hlineto
          18 -453 rlineto
          endchar
        </CharString>
        <CharString name="Xigreek.1">
          1345 617 702 rmoveto
          32 -495 -132 hlineto
          -290 -77 38 208 -52 hvcurveto
          -41 hlineto
          17 -453 1196 0 18 453 rlineto
          -41 hlineto
          -209 -52 -78 -37 -290 hhcurveto
          -131 495 32 hlineto
          200 48 -50 -146 26 hvcurveto
          39 443 -39 hlineto
          -143 -27 -47 -47 -200 hhcurveto
          -32 485 141 hlineto
          262 79 -34 -172 50 hvcurveto
          41 hlineto
          -18 406 -1157 0 -18 -406 rlineto
          41 hlineto
          172 49 80 34 262 hhcurveto
          141 -485 -32 hlineto
          -200 -48 47 143 -27 hvcurveto
          -39 -443 39 hlineto
          146 26 49 50 200 hhcurveto
          endchar
        </CharString>
        <CharString name="Y">
          1351 212 1198 -76 callsubr
          -65 callsubr
        </CharString>
        <CharString name="Yacute">
          1351 704 -98 callsubr
          -92 callsubr
          -437 -335 -76 callsubr
          -65 callsubr
        </CharString>
        <CharString name="Ycircumflex">
          1351 543 -61 callsubr
          -50 callsubr
          -279 -334 -76 callsubr
          -65 callsubr
        </CharString>
        <CharString name="Ydieresis">
          1351 596 1562 rmoveto
          25 callsubr
          -39 callsubr
          17 callsubr
          -58 callsubr
          -710 -364 -76 callsubr
          -65 callsubr
        </CharString>
        <CharString name="Ydotaccent">
          1351 759 12 callsubr
          -67 -65 callgsubr
          -547 -361 -76 callsubr
          -65 callsubr
        </CharString>
        <CharString name="Ydotbelow">
          1351 212 1198 -76 callsubr
          -603 -43 vlineto
          91 -17 35 -29 93 -157 rrcurveto
          473 -1368 -45 callsubr
          53 50 65 65 -53 50 -66 hvcurveto
          endchar
        </CharString>
        <CharString name="Yericyrillic">
          1946 1264 173 callsubr
          133 callsubr
          -107 callsubr
          616 vlineto
          380 214 177 260 hvcurveto
          489 -262 rmoveto
          1094 vlineto
          89 21 23 117 -101 callgsubr
          33 callgsubr
          -808 256 43 callgsubr
        </CharString>
        <CharString name="Ygrave">
          1351 839 -59 callgsubr
          -272 -609 -76 callsubr
          -65 callsubr
        </CharString>
        <CharString name="Yhookabove">
          1351 789 69 callsubr
          25 41 22 callsubr
          70 callsubr
          -577 -660 -76 callsubr
          -65 callsubr
        </CharString>
        <CharString name="Yicyrillic">
          685 180 53 callsubr
          -39 callsubr
          -12 -1387 -85 callsubr
          -83 callsubr
        </CharString>
        <CharString name="Ymacron">
          1351 495 -48 callsubr
          -283 -522 -76 callsubr
          -65 callsubr
        </CharString>
        <CharString name="Ytilde">
          1351 872 -9 callsubr
          -9 hvcurveto
          -49 hlineto
          -89 -5 -26 -29 97 callsubr
          -72 -70 -188 8 hvcurveto
          50 hlineto
          89 18 callsubr
          -660 -354 -76 callsubr
          -65 callsubr
        </CharString>
        <CharString name="Z">
          1278 1189 hmoveto
          14 callsubr
        </CharString>
        <CharString name="Zacute">
          1278 601 -98 callsubr
          -74 callgsubr
          642 -1533 rmoveto
          14 callsubr
        </CharString>
        <CharString name="Zcaron">
          1278 896 3 callsubr
          240 -1832 rmoveto
          14 callsubr
        </CharString>
        <CharString name="Zcircumflex">
          1278 441 -61 callsubr
          77 callsubr
          32 callsubr
          801 -1532 rmoveto
          14 callsubr
        </CharString>
        <CharString name="Zdotaccent">
          1278 657 -30 callsubr
          532 -1559 rmoveto
          14 callsubr
        </CharString>
        <CharString name="Zdotbelow">
          53 callgsubr
          572 -175 rmoveto
          -66 -54 -49 -65 -65 54 -50 66 66 54 50 65 65 -54 49 -66 hvcurveto
          endchar
        </CharString>
        <CharString name="Zecyrillic">
          1247 1169 416 rmoveto
          239 -225 106 -263 14 vhcurveto
          241 28 197 114 199 vvcurveto
          232 -209 118 -355 -186 -148 -48 -56 -80 vhcurveto
          -11 -320 rlineto
          41 hlineto
          218 50 122 145 196 hhcurveto
          195 74 -129 -183 -199 -111 -108 -202 hvcurveto
          -132 -54 132 hlineto
          233 125 -121 -213 -237 -128 -122 -213 -178 -140 127 242 -56 hvcurveto
          -41 hlineto
          14 -321 rlineto
          -59 84 154 -50 179 hhcurveto
          350 291 132 306 hvcurveto
          endchar
        </CharString>
        <CharString name="Zetagreek">
          1278 1189 hmoveto
          14 callsubr
        </CharString>
        <CharString name="Zhecyrillic">
          2074 374 hmoveto
          416 715 99 1 rlineto
          -547 87 callsubr
          544 43 vlineto
          -110 19 -20 21 86 vvcurveto
          547 vlineto
          99 -1 416 -715 rlineto
          390 41 hlineto
          -73 23 -44 42 -127 218 rrcurveto
          -355 616 234 251 131 137 74 50 112 23 rlinecurve
          43 -415 -43 vlineto
          135 -17 -1 -48 -99 -116 rrcurveto
          -378 -448 -99 -2 rlineto
          505 vlineto
          86 20 21 110 19 vhcurveto
          43 -544 -82 callgsubr
          -505 vlineto
          -99 2 -378 448 -98 116 -1 48 134 17 rlinecurve
          43 -415 -43 vlineto
          112 -23 71 -50 131 -137 rrcurveto
          243 -263 -348 -604 -128 -218 -44 -42 -74 -23 rlinecurve
          -41 vlineto
          endchar
        </CharString>
        <CharString name="Zlinebelow">
          53 callgsubr
          299 -356 rmoveto
          546 134 -546 hlineto
          endchar
        </CharString>
        <CharString name="a">
          1102 360 -19 -102 callsubr
        </CharString>
        <CharString name="a.dnum">
          674 217 -11 rmoveto
          91 70 36 53 22 hvcurveto
          -56 11 59 -30 65 hhcurveto
          48 43 13 15 23 hvcurveto
          30 vlineto
          -2 24 callgsubr
          -42 35 -32 47 45 36 34 43 34 -21 27 -30 10 vhcurveto
          8 21 25 4 25 hhcurveto
          84 47 -37 -91 hvcurveto
          -50 vlineto
          -108 -22 rlineto
          -166 -32 -63 -54 -76 vvcurveto
          -75 65 -51 94 vhcurveto
          21 154 rmoveto
          58 32 36 88 20 vhcurveto
          37 7 rlineto
          -162 vlineto
          -26 -14 -28 -15 -37 hhcurveto
          -44 -34 29 53 hvcurveto
          endchar
        </CharString>
        <CharString name="a.numr">
          658 217 695 194 callsubr
        </CharString>
        <CharString name="a.sups">
          674 217 862 194 callsubr
        </CharString>
        <CharString name="aacute">
          1102 446 8 callsubr
          -32 -1116 -102 callsubr
        </CharString>
        <CharString name="abreve">
          1102 513 180 callsubr
          -101 72 103 vhcurveto
          5 -50 vlineto
          -4 -18 -1 75 callsubr
          -153 -1150 -102 callsubr
        </CharString>
        <CharString name="abreveacute">
          1102 786 30 callsubr
          273 -279 -32 callsubr
          -127 -92 40 61 -7 hvcurveto
          -47 80 callsubr
          -153 -1105 -102 callsubr
        </CharString>
        <CharString name="abrevecyrillic">
          1102 513 90 callgsubr
          9 8 1 2 8 hvcurveto
          -48 -41 -70 -34 -93 hhcurveto
          -94 -69 34 48 -41 hvcurveto
          -2 8 22 callgsubr
          -153 -1144 -102 callsubr
        </CharString>
        <CharString name="abrevedotbelow">
          1102 513 180 callsubr
          -101 72 103 vhcurveto
          5 -50 vlineto
          -4 -18 -1 75 callsubr
          -153 -1150 40 callsubr
          208 -672 -86 callsubr
          -59 callsubr
        </CharString>
        <CharString name="abrevegrave">
          1102 240 -7 callsubr
          273 -531 -32 callsubr
          -127 -92 40 61 -7 hvcurveto
          -47 80 callsubr
          -153 -1105 -102 callsubr
        </CharString>
        <CharString name="abrevehookabove">
          1102 504 1592 rmoveto
          -82 -59 -40 -46 -32 hvcurveto
          -36 vlineto
          16 21 41 13 43 -63 callgsubr
          69 44 82 vvcurveto
          81 -78 49 -93 vhcurveto
          9 -506 -32 callsubr
          -127 -92 40 61 -7 hvcurveto
          -47 80 callsubr
          -153 -1105 -102 callsubr
        </CharString>
        <CharString name="abrevetilde">
          1102 628 1391 rmoveto
          97 63 -90 callgsubr
          -27 -22 -48 hhcurveto
          -28 -30 7 15 15 callsubr
          25 callgsubr
          -115 -305 -32 callsubr
          -127 -92 40 61 -7 hvcurveto
          -47 80 callsubr
          -153 -1105 -102 callsubr
        </CharString>
        <CharString name="acaron">
          1102 757 -72 callsubr
          68 callsubr
          -452 -1507 -102 callsubr
        </CharString>
        <CharString name="acircumflex">
          1102 268 1097 rmoveto
          245 60 callsubr
          146 -1116 -102 callsubr
        </CharString>
        <CharString name="acircumflexacute">
          1102 786 30 callsubr
          -75 callgsubr
          -27 callsubr
          120 -1143 -102 callsubr
        </CharString>
        <CharString name="acircumflexdotbelow">
          1102 268 1097 rmoveto
          245 60 callsubr
          146 -1116 40 callsubr
          208 -672 -86 callsubr
          -59 callsubr
        </CharString>
        <CharString name="acircumflexgrave">
          1102 240 -7 callsubr
          -76 callgsubr
          -27 callsubr
          120 -1143 -102 callsubr
        </CharString>
        <CharString name="acircumflexhookabove">
          1102 723 164 callsubr
          -27 callsubr
          120 -1143 -102 callsubr
        </CharString>
        <CharString name="acircumflextilde">
          1102 628 1391 rmoveto
          97 63 -90 callgsubr
          -27 -22 -48 hhcurveto
          -28 -30 7 15 15 callsubr
          25 callgsubr
          -106 callgsubr
          -27 callsubr
          120 -1143 -102 callsubr
        </CharString>
        <CharString name="acute">
          1024 446 -80 callsubr
          -84 callsubr
          endchar
        </CharString>
        <CharString name="acutecmb">
          0 -66 -80 callsubr
          -84 callsubr
          endchar
        </CharString>
        <CharString name="acutecmb.short">
          0 -55 1072 rmoveto
          352 276 rlineto
          6 -92 callsubr
          endchar
        </CharString>
        <CharString name="acutedotaccentcmb">
          0 1348 vmoveto
          60 47 44 60 59 -47 45 -60 -60 -47 -45 -59 -60 47 -44 60 hvcurveto
          273 -160 rmoveto
          158 vlineto
          -546 -209 rlineto
          -45 vlineto
          endchar
        </CharString>
        <CharString name="acutedotaccentcmb.short">
          0 1760 vmoveto
          57 45 39 49 51 -45 38 -57 -57 -45 -38 -51 -49 45 -39 57 hvcurveto
          280 -136 29 callsubr
          endchar
        </CharString>
        <CharString name="acyrillic">
          1102 360 -19 -102 callsubr
        </CharString>
        <CharString name="adblgrave">
          1102 288 11 callsubr
          58 hlineto
          231 66 callsubr
          -360 -1116 -102 callsubr
        </CharString>
        <CharString name="adieresis">
          1102 295 1159 rmoveto
          74 59 55 72 72 -59 55 86 callsubr
          -77 callsubr
          -26 callsubr
          -370 -1178 -102 callsubr
        </CharString>
        <CharString name="adieresismacron">
          1102 239 1415 rmoveto
          547 120 -547 hlineto
          116 -429 -62 callsubr
          -31 callsubr
          -311 -1125 -102 callsubr
        </CharString>
        <CharString name="adotaccent">
          1102 513 -12 callsubr
          -80 callgsubr
          -153 -1170 -102 callsubr
        </CharString>
        <CharString name="adotbelow">
          1102 360 -19 40 callsubr
          208 -672 -86 callsubr
          -59 callsubr
        </CharString>
        <CharString name="adotmacron">
          1102 239 63 callgsubr
          46 43 60 59 -46 45 -60 -60 -47 -45 -59 -60 47 -43 60 hvcurveto
          -153 -1123 -102 callsubr
        </CharString>
        <CharString name="ae">
          1631 363 -19 147 callsubr
        </CharString>
        <CharString name="aeacute">
          1631 763 181 callsubr
          -345 -1116 147 callsubr
        </CharString>
        <CharString name="aemacron">
          1631 536 1198 rmoveto
          587 149 -587 hlineto
          -173 -1366 147 callsubr
        </CharString>
        <CharString name="agrave">
          1102 580 1097 rmoveto
          55 hlineto
          -134 367 rlineto
          -295 -8 hlineto
          154 -1475 -102 callsubr
        </CharString>
        <CharString name="ahookabove">
          1102 552 1474 rmoveto
          -111 -81 -59 -73 -36 hvcurveto
          -38 vlineto
          27 27 10 callgsubr
          -192 -1493 -102 callsubr
        </CharString>
        <CharString name="ainvertedbreve">
          1102 513 1453 rmoveto
          -196 -100 -145 -144 -20 1 -20 4 -17 hvcurveto
          184 callsubr
          228 callsubr
          -153 -1472 -102 callsubr
        </CharString>
        <CharString name="alphagreek">
          1284 458 -19 189 callsubr
        </CharString>
        <CharString name="alphatonosgreek">
          1284 608 1097 rmoveto
          234 360 rlineto
          7 -246 vlineto
          -43 -367 rlineto
          -95 -1116 189 callsubr
        </CharString>
        <CharString name="amacron">
          1102 220 -60 callsubr
          140 -1366 -102 callsubr
        </CharString>
        <CharString name="ampersand">
          1621 506 -21 rmoveto
          189 138 86 163 143 hvcurveto
          225 -228 rlineto
          420 41 hlineto
          -72 23 -69 50 -146 147 rrcurveto
          -185 189 141 190 129 173 50 40 102 14 rlinecurve
          43 vlineto
          -404 -1 rlineto
          -44 vlineto
          126 -17 30 -48 -98 -150 rrcurveto
          -109 -167 -319 326 -14 14 -13 13 -12 13 rlinecurve
          209 72 131 107 149 vvcurveto
          161 -143 129 -257 -256 -167 -150 -191 -119 51 -98 119 -136 vhcurveto
          -241 -77 -128 -145 -1 -184 rrcurveto
          -223 177 -165 254 vhcurveto
          17 1247 rmoveto
          117 73 63 102 114 66 -104 -132 -1 vhcurveto
          -118 -50 -101 -102 -68 vhcurveto
          -146 152 -56 86 105 vvcurveto
          -197 -734 rmoveto
          101 47 85 104 60 vhcurveto
          31 -34 35 -36 39 -40 366 -371 rcurveline
          -88 -89 -89 -37 -93 hhcurveto
          -191 -160 148 212 hvcurveto
          endchar
        </CharString>
        <CharString name="anoteleiagreek">
          506 253 701 61 callgsubr
          endchar
        </CharString>
        <CharString name="aogonek">
          1105 360 -19 rmoveto
          157 125 66 95 41 hvcurveto
          -101 19 93 -53 111 hhcurveto
          20 20 1 2 18 hvcurveto
          -3 -1 rlineto
          -194 -103 -75 -95 -102 vvcurveto
          -103 85 -66 108 98 80 45 68 36 vhcurveto
          -1 42 rlineto
          -18 -16 -33 -10 -34 hhcurveto
          -55 -48 37 75 91 55 85 123 97 hvcurveto
          41 vlineto
          -4 -11 -14 -2 -16 hhcurveto
          -57 -43 36 85 hvcurveto
          491 vlineto
          223 -161 99 -257 -253 -168 -104 -133 -72 59 -53 72 73 58 55 71 66 -49 52 -61 7 vhcurveto
          26 48 59 15 64 hhcurveto
          153 92 -71 -186 hvcurveto
          -105 vlineto
          -199 -41 rlineto
          -293 -61 -112 -97 -149 vvcurveto
          -145 119 -96 167 vhcurveto
          -11 285 rmoveto
          118 61 74 184 43 vhcurveto
          84 18 rlineto
          -339 vlineto
          -59 -33 -58 -31 -76 hhcurveto
          -91 -71 63 113 hvcurveto
          endchar
        </CharString>
        <CharString name="approxequal">
          1176 856 717 221 callsubr
          110 233 hvcurveto
          -78 hlineto
          -178 -1 -71 -77 -99 hhcurveto
          -473 vmoveto
          -162 -161 256 -189 hhcurveto
          -150 -101 -110 -233 hvcurveto
          79 hlineto
          179 1 71 75 98 162 162 -255 189 hhcurveto
          150 100 91 callgsubr
        </CharString>
        <CharString name="aring">
          1102 239 209 callsubr
          -59 -1310 -102 callsubr
        </CharString>
        <CharString name="aringacute">
          1102 786 -3 callgsubr
          -93 -49 -75 -76 93 11 callgsubr
          -168 -1147 -102 callsubr
        </CharString>
        <CharString name="aringbelow">
          1102 360 -19 40 callsubr
          -65 -551 212 callsubr
        </CharString>
        <CharString name="asciicircum">
          1176 565 1444 rmoveto
          -425 -577 59 -56 388 524 387 -525 63 56 -427 578 rlineto
          endchar
        </CharString>
        <CharString name="asciitilde">
          1176 856 490 221 callsubr
          91 callgsubr
        </CharString>
        <CharString name="asterisk">
          746 363 1138 rmoveto
          20 hlineto
          62 196 rlineto
          81 29 -50 51 -51 hhcurveto
          -53 -49 -51 -81 30 hvcurveto
          90 -199 rmoveto
          9 -19 197 46 rlineto
          85 16 20 67 -27 45 -26 46 -69 18 -55 -67 rrcurveto
          -179 -171 rmoveto
          9 18 -134 152 rlineto
          -55 67 -69 -18 -26 -45 -26 -46 19 -67 85 -16 rrcurveto
          206 -70 rmoveto
          -9 18 -197 -45 rlineto
          -84 -16 -20 -67 26 -45 27 -46 69 -18 54 67 rrcurveto
          179 170 rmoveto
          -9 -17 135 -153 rlineto
          54 -66 69 18 26 45 27 46 -19 66 -85 16 rrcurveto
          -215 23 rmoveto
          -19 hlineto
          -62 -197 rlineto
          -81 -30 49 -51 52 hhcurveto
          53 49 51 81 -30 hvcurveto
          endchar
        </CharString>
        <CharString name="at">
          1998 554 369 rmoveto
          -199 80 -130 149 128 128 96 175 62 vhcurveto
          -1 -5 -9 -46 -6 vvcurveto
          -149 -18 78 -98 193 hhcurveto
          313 259 279 387 449 -366 295 -476 -509 -487 -384 -623 -509 374 -330 439 1 hvcurveto
          161 175 34 86 113 hvcurveto
          -1 46 rlineto
          -83 -131 -151 -23 -154 hhcurveto
          -413 -344 302 481 583 459 358 470 438 334 -264 -425 -378 -248 -206 -182 -72 -51 41 127 27 hvcurveto
          153 714 -104 0 -155 -126 rlineto
          88 -32 -67 56 -110 hhcurveto
          -269 -183 -309 -305 hvcurveto
          248 -14 rmoveto
          228 104 320 170 67 43 -48 -81 7 vhcurveto
          -78 -367 rlineto
          -125 -26 -91 -127 -98 hhcurveto
          -72 -26 83 117 hvcurveto
          endchar
        </CharString>
        <CharString name="atilde">
          1102 633 122 callsubr
          -27 -33 -46 hhcurveto
          -31 -26 13 28 -83 callgsubr
          -57 hhcurveto
          -104 -76 99 callsubr
          143 callsubr
          31 -23 rlineto
          -38 56 46 -22 56 hhcurveto
          -273 -1170 -102 callsubr
        </CharString>
        <CharString name="austral">
          1408 221 276 rmoveto
          -65 -185 -35 -30 -103 -18 rrcurveto
          -43 385 43 vlineto
          -138 21 -24 37 57 173 rrcurveto
          40 122 531 0 46 -139 52 -153 -24 -42 -133 -19 rlinecurve
          -43 591 43 vlineto
          -95 16 -37 34 -58 162 -50 141 rcurveline
          240 40 -254 hlineto
          -85 239 rlineto
          339 41 -354 hlineto
          -261 733 -153 0 -258 -733 rlineto
          -357 -41 343 hlineto
          -84 -239 rlineto
          -259 -40 245 hlineto
          180 320 rmoveto
          158 475 160 -475 rlineto
          -410 -280 rmoveto
          79 239 344 0 81 -239 rlineto
          endchar
        </CharString>
        <CharString name="austral.tnum">
          1183 -4 435 rmoveto
          -40 206 vlineto
          -34 -120 -55 -184 -29 -33 -88 -15 rlinecurve
          -43 327 43 vlineto
          -114 17 -18 34 49 180 rrcurveto
          33 121 418 0 37 -137 43 -160 -16 -39 -112 -16 rlinecurve
          -43 543 43 vlineto
          -83 14 -29 36 -49 165 -40 137 rcurveline
          201 40 -213 hlineto
          -70 239 rlineto
          283 40 -295 hlineto
          -216 734 -167 0 -213 -734 rlineto
          -299 -40 287 hlineto
          -69 -239 rlineto
          146 279 rmoveto
          121 449 123 -449 rlineto
          -320 -279 rmoveto
          65 239 266 0 65 -239 rlineto
          endchar
        </CharString>
        <CharString name="b">
          -94 callgsubr
          105 callsubr
          endchar
        </CharString>
        <CharString name="backslash">
          702 550 -280 rmoveto
          101 hlineto
          -498 1860 rlineto
          -101 hlineto
          endchar
        </CharString>
        <CharString name="baht">
          1353 70 30 rmoveto
          568 hlineto
          9 9 0 9 hhcurveto
          -219 41 221 vlineto
          301 16 262 125 255 vvcurveto
          222 -193 119 -288 12 vhcurveto
          217 15 197 99 197 vvcurveto
          200 -184 107 -312 14 vhcurveto
          219 -41 -218 vlineto
          -9 -9 0 -9 hhcurveto
          -568 101 callgsubr
          416 1291 rmoveto
          91 -4 rlineto
          32 29 -3 -5 27 hvcurveto
          -561 vlineto
          -1 -11 -11 -1 -11 hhcurveto
          -146 -1 rlineto
          431 282 rmoveto
          -162 -77 -89 -134 -23 vhcurveto
          547 vlineto
          149 -39 62 -102 -132 vvcurveto
          -431 -332 rmoveto
          146 -2 rlineto
          11 11 -1 -1 11 hvcurveto
          -643 vlineto
          -27 -4 -30 -2 -31 -1 -91 -4 rcurveline
          488 337 rmoveto
          -169 -94 -110 -174 -39 vhcurveto
          631 vlineto
          174 -29 94 -120 -164 vvcurveto
          endchar
        </CharString>
        <CharString name="baht.tnum">
          1183 37 33 rmoveto
          524 hlineto
          8 7 0 7 hhcurveto
          -222 41 223 vlineto
          280 16 244 126 247 47 callgsubr
          192 -168 105 -292 13 vhcurveto
          222 -41 -221 vlineto
          -7 -7 0 -8 hhcurveto
          -524 42 callgsubr
          397 1286 rmoveto
          80 -2 25 -1 23 -2 21 -4 rlinecurve
          -563 vlineto
          -9 -1 -9 0 -10 -1 -121 -1 rcurveline
          379 290 rmoveto
          -160 -68 -95 -121 -26 vhcurveto
          548 vlineto
          129 -38 60 -98 -131 vvcurveto
          -379 -338 rmoveto
          121 -2 10 -1 9 0 9 -1 rlinecurve
          -645 vlineto
          -22 -3 -23 -2 -24 -1 -80 -2 rcurveline
          434 333 rmoveto
          -168 -91 -110 -153 -38 vhcurveto
          631 vlineto
          157 -29 87 -121 -165 vvcurveto
          endchar
        </CharString>
        <CharString name="bar">
          702 301 -280 rmoveto
          101 1860 -101 hlineto
          endchar
        </CharString>
        <CharString name="bdotaccent">
          1221 289 1611 rmoveto
          78 63 58 76 77 -63 58 -78 -80 callgsubr
          854 -1110 rmoveto
          105 callsubr
          endchar
        </CharString>
        <CharString name="bdotbelow">
          -94 callgsubr
          105 callsubr
          -233 -879 -86 callsubr
          -10 callsubr
        </CharString>
        <CharString name="becyrillic">
          1240 1163 491 rmoveto
          298 -211 191 -310 -233 -168 -135 -189 -65 vhcurveto
          -7 38 -3 43 45 vvcurveto
          210 93 165 373 35 vhcurveto
          118 12 279 27 85 78 15 208 rlinecurve
          -45 hlineto
          -17 -53 -62 -12 -222 -23 -226 -24 -135 -55 -116 -105 rrcurveto
          -136 -122 -81 -210 -315 vvcurveto
          -372 181 -245 349 291 253 203 307 vhcurveto
          -296 -15 rmoveto
          -287 -86 -149 -154 -156 -84 181 264 276 83 161 160 152 85 -174 -272 vhcurveto
          endchar
        </CharString>
        <CharString name="betagreek">
          1222 129 -460 rmoveto
          285 hlineto
          -4 216 -3 187 -2 164 rrcurveto
          -73 52 106 -54 129 hhcurveto
          223 221 146 283 269 -176 170 -255 21 hvcurveto
          181 17 170 110 184 vvcurveto
          201 -166 121 -278 -272 -206 -140 -383 -1 vhcurveto
          263 146 rmoveto
          210 69 106 144 130 66 -110 -167 -172 -90 -105 -192 -7 vhcurveto
          1 -194 rlineto
          227 -6 129 -126 -209 vvcurveto
          -189 -112 -92 -142 -99 -84 42 59 -39 vhcurveto
          -8 504 0 270 186 vvcurveto
          endchar
        </CharString>
        <CharString name="bitcoin">
          1348 70 30 rmoveto
          446 -219 40 219 78 hlineto
          55 55 4 7 53 hvcurveto
          -230 40 236 vlineto
          240 43 187 122 216 vvcurveto
          222 -193 119 -288 12 vhcurveto
          218 15 196 99 197 vvcurveto
          169 -131 103 -229 36 vhcurveto
          232 -40 -227 vlineto
          6 -51 -54 3 -58 hhcurveto
          -78 218 -40 -218 -446 101 callgsubr
          843 997 rmoveto
          -190 -106 -89 -180 -2 vhcurveto
          -141 -1 0 576 87 -4 rlineto
          242 -7 98 -117 -166 vvcurveto
          56 -653 rmoveto
          -207 -141 -118 -255 -8 vhcurveto
          -87 -4 0 658 141 -2 rlineto
          221 -3 121 -130 -186 vvcurveto
          endchar
        </CharString>
        <CharString name="bitcoin.tnum">
          1183 37 33 rmoveto
          407 -222 41 222 76 hlineto
          52 51 3 7 49 hvcurveto
          -232 41 239 vlineto
          221 44 173 121 208 47 callgsubr
          161 -119 101 -211 35 vhcurveto
          235 -41 -229 vlineto
          6 -46 -51 2 -55 hhcurveto
          -76 221 -41 -221 -407 42 callgsubr
          775 1001 rmoveto
          -188 -94 -99 -164 -2 vhcurveto
          -118 -1 0 575 77 -2 rlineto
          204 -7 95 -112 -164 vvcurveto
          53 -663 rmoveto
          -204 -133 -118 -219 -8 vhcurveto
          -77 -2 0 657 118 -2 rlineto
          200 -4 111 -132 -187 vvcurveto
          endchar
        </CharString>
        <CharString name="blinebelow">
          -94 callgsubr
          105 callsubr
          -506 -824 -79 callsubr
        </CharString>
        <CharString name="braceleft">
          702 463 1000 rmoveto
          259 vlineto
          164 25 113 167 vhcurveto
          44 -40 vlineto
          -263 -129 -123 -239 hvcurveto
          -333 vlineto
          -154 -80 -60 -115 vhcurveto
          -39 vlineto
          115 80 -61 -157 hvcurveto
          -331 vlineto
          -240 129 -123 263 vhcurveto
          40 44 hlineto
          -167 -25 113 165 hvcurveto
          261 vlineto
          216 -108 106 -234 26 vhcurveto
          237 26 105 106 217 vvcurveto
          endchar
        </CharString>
        <CharString name="braceright">
          702 238 1000 rmoveto
          -217 106 -106 237 -26 vhcurveto
          -234 -26 -109 -106 -216 vvcurveto
          -261 vlineto
          -165 -24 -113 -167 vhcurveto
          -44 39 vlineto
          264 129 123 240 hvcurveto
          331 vlineto
          157 80 61 114 vhcurveto
          39 vlineto
          -114 -80 60 154 hvcurveto
          333 vlineto
          239 -129 123 -264 vhcurveto
          -39 -44 hlineto
          167 24 -113 -164 hvcurveto
          endchar
        </CharString>
        <CharString name="bracketleft">
          702 182 -286 rmoveto
          453 6 0 45 -214 9 0 1752 214 9 0 45 -453 6 rlineto
          endchar
        </CharString>
        <CharString name="bracketright">
          702 520 1586 rmoveto
          -453 -6 0 -45 213 -9 0 -1752 -213 -9 0 -45 453 -6 rlineto
          endchar
        </CharString>
        <CharString name="breve">
          1024 512 73 callsubr
          -2 -86 callgsubr
          -101 96 callsubr
          -2 75 callsubr
          endchar
        </CharString>
        <CharString name="breveacutecmb">
          -69 callgsubr
          273 -279 -32 callsubr
          124 callsubr
        </CharString>
        <CharString name="breveacutecmb.short">
          0 280 -32 callgsubr
          281 -229 -34 callsubr
          -68 callgsubr
        </CharString>
        <CharString name="brevebelowcmb">
          0 -441 vmoveto
          64 callgsubr
          -94 -64 -130 166 callsubr
        </CharString>
        <CharString name="brevecmb">
          0 1131 vmoveto
          196 100 145 145 20 -2 -86 callgsubr
          -101 96 callsubr
          -2 75 callsubr
          endchar
        </CharString>
        <CharString name="brevecmb.short">
          0 1115 vmoveto
          -56 callgsubr
          -125 -124 -90 64 92 vhcurveto
          4 -47 vlineto
          -2 -15 134 callsubr
          endchar
        </CharString>
        <CharString name="brevecyrilliccmb">
          0 1125 vmoveto
          187 111 -36 callgsubr
          213 callsubr
          endchar
        </CharString>
        <CharString name="brevecyrilliccmb.short">
          0 1575 vmoveto
          -29 callgsubr
          -63 -45 157 callsubr
          -47 -48 -67 -121 116 -109 186 hvcurveto
          endchar
        </CharString>
        <CharString name="brevegravecmb">
          0 -273 -7 callsubr
          273 -531 -32 callsubr
          124 callsubr
        </CharString>
        <CharString name="brevegravecmb.short">
          0 -280 64 callsubr
          280 -443 -34 callsubr
          -68 callgsubr
        </CharString>
        <CharString name="brevehookabovecmb">
          0 -8 1592 rmoveto
          -83 -58 -40 -46 -33 hvcurveto
          -36 vlineto
          16 21 41 13 43 -63 callgsubr
          70 44 82 vvcurveto
          81 -78 49 -93 vhcurveto
          8 -506 -32 callsubr
          124 callsubr
        </CharString>
        <CharString name="brevehookabovecmb.short">
          0 -8 1972 rmoveto
          -85 -60 -35 -38 -34 hvcurveto
          -31 vlineto
          13 22 42 12 44 hhcurveto
          64 38 -24 -36 -36 -34 -26 -68 -15 hvcurveto
          39 -24 rlineto
          135 22 71 36 71 vvcurveto
          69 -79 42 -95 vhcurveto
          8 -432 -34 callsubr
          -68 callgsubr
        </CharString>
        <CharString name="brevetildecmb">
          0 115 1391 -51 callsubr
          -39 2 callsubr
          -35 callgsubr
          -115 -305 -32 callsubr
          124 callsubr
        </CharString>
        <CharString name="brevetildecmb.short">
          0 118 1799 rmoveto
          100 64 30 callgsubr
          -46 -43 11 -49 hhcurveto
          -99 -65 -58 -48 callgsubr
          -6 -13 41 hvcurveto
          34 -9 rlineto
          -14 45 44 -10 48 hhcurveto
          -118 -259 -34 callsubr
          -68 callgsubr
        </CharString>
        <CharString name="brokenbar">
          702 301 789 rmoveto
          101 791 -101 hlineto
          -1860 vmoveto
          101 791 -101 hlineto
          endchar
        </CharString>
        <CharString name="bullet">
          693 347 365 rmoveto
          117 96 96 118 118 -96 65 callgsubr
        </CharString>
        <CharString name="c">
          1022 585 -19 1 callsubr
        </CharString>
        <CharString name="cacute">
          1022 525 -80 callsubr
          -84 callsubr
          115 -1116 1 callsubr
        </CharString>
        <CharString name="caret">
          506 234 hmoveto
          -269 -356 48 -48 239 316 240 -317 50 48 -270 357 rlineto
          endchar
        </CharString>
        <CharString name="caron">
          1024 756 -72 callsubr
          68 callsubr
          endchar
        </CharString>
        <CharString name="caroncmb">
          0 244 -72 callsubr
          68 callsubr
          endchar
        </CharString>
        <CharString name="caroncmb.short">
          0 240 1372 -5 callgsubr
          93 callsubr
          endchar
        </CharString>
        <CharString name="carondotaccentcmb">
          0 1348 vmoveto
          60 47 44 60 59 -47 45 -60 -60 -47 -45 -59 -60 47 -44 60 hvcurveto
          273 -15 rmoveto
          -273 -101 -273 101 0 -46 255 -208 36 0 255 208 rlineto
          endchar
        </CharString>
        <CharString name="carondotaccentcmb.short">
          0 1781 vmoveto
          57 45 37 51 50 -45 38 -57 -57 -45 -38 -50 -51 45 -37 57 hvcurveto
          288 -15 rmoveto
          -288 -84 -288 84 0 -38 270 -177 38 0 268 177 rlineto
          endchar
        </CharString>
        <CharString name="caronslovak">
          1024 428 1066 -33 callgsubr
        </CharString>
        <CharString name="caronslovakcmb">
          0 61 1066 -33 callgsubr
        </CharString>
        <CharString name="ccaron">
          1022 836 -72 callsubr
          -44 callgsubr
          -305 -1507 1 callsubr
        </CharString>
        <CharString name="ccedilla">
          1022 565 -455 rmoveto
          125 callsubr
          69 89 158 8 129 65 65 94 rlinecurve
          153 callsubr
          -301 210 -197 274 -11 hvcurveto
          -126 -157 59 callsubr
          -10 callgsubr
        </CharString>
        <CharString name="ccedillaacute">
          1022 525 -80 callsubr
          -84 callsubr
          95 -1552 rmoveto
          125 callsubr
          69 89 158 8 129 65 65 94 rlinecurve
          153 callsubr
          -301 210 -197 274 -11 hvcurveto
          -126 -157 59 callsubr
          -10 callgsubr
        </CharString>
        <CharString name="ccircumflex">
          1022 347 -64 callsubr
          55 0 -226 367 91 callsubr
          293 -1116 1 callsubr
        </CharString>
        <CharString name="cdotaccent">
          1022 591 120 callsubr
          -6 -1170 1 callsubr
        </CharString>
        <CharString name="cedi">
          1337 784 -189 rmoveto
          41 202 1 hlineto
          175 177 43 56 76 hvcurveto
          13 310 rlineto
          -40 hlineto
          -246 -60 -138 -103 -190 -5 -5 1 -4 hhcurveto
          1297 vlineto
          4 5 0 5 hhcurveto
          202 129 -122 -225 53 hvcurveto
          40 hlineto
          -13 310 rlineto
          55 -81 -140 42 -204 hhcurveto
          201 -41 -202 vlineto
          -406 -16 -283 -274 -410 vvcurveto
          -427 285 -272 404 -17 vhcurveto
          -390 736 rmoveto
          356 146 232 244 29 vhcurveto
          -1290 vlineto
          -254 36 -136 286 351 vvcurveto
          endchar
        </CharString>
        <CharString name="cedi.tnum">
          1183 700 -189 rmoveto
          41 202 hlineto
          151 2 141 38 69 44 13 312 rcurveline
          -41 hlineto
          -54 -235 -116 -102 -158 1 rrcurveto
          -2 -2 0 -1 hhcurveto
          1298 vlineto
          3 2 0 3 hhcurveto
          157 111 -120 -214 48 hvcurveto
          41 hlineto
          -12 312 -74 43 -117 37 -162 2 rlinecurve
          201 -41 -202 vlineto
          -366 -15 -257 -276 -410 vvcurveto
          -441 260 -261 363 -13 vhcurveto
          -326 735 rmoveto
          357 122 230 204 31 vhcurveto
          -1290 vlineto
          -214 33 -112 275 364 vvcurveto
          endchar
        </CharString>
        <CharString name="cedilla">
          1024 485 -455 rmoveto
          -24 callsubr
          -93 66 -112 -14 -15 -1 -2 -13 hvcurveto
          81 107 rlineto
          23 -38 vlineto
          -154 -199 -45 callgsubr
          14 21 -27 hvcurveto
          -1 -42 rlineto
          -52 34 78 -37 93 hhcurveto
          endchar
        </CharString>
        <CharString name="cedillacmb">
          0 -27 -455 rmoveto
          -24 callsubr
          -98 callgsubr
          78 99 rlineto
          23 -38 vlineto
          -154 -191 -45 callgsubr
          15 20 -27 hvcurveto
          -1 -42 rlineto
          -52 34 78 -37 93 hhcurveto
          endchar
        </CharString>
        <CharString name="cent">
          1033 618 hmoveto
          212 vlineto
          164 8 133 65 66 77 callgsubr
          808 vlineto
          3 40 callgsubr
          70 57 55 74 131 -130 99 -226 2 vhcurveto
          211 -40 -212 vlineto
          -292 231 callsubr
          283 -2 vhcurveto
          -211 vlineto
          -217 775 rmoveto
          190 82 137 135 46 vhcurveto
          -781 vlineto
          -128 60 -89 142 206 vvcurveto
          endchar
        </CharString>
        <CharString name="cent.1">
          1020 615 hmoveto
          212 vlineto
          159 8 128 66 66 92 -1 44 rcurveline
          -51 -52 -85 -37 -102 hhcurveto
          -202 -162 161 280 234 121 155 184 61 52 -15 -25 39 hvcurveto
          -67 -55 -55 -72 -71 57 -56 73 70 58 56 75 131 -124 98 -218 3 hvcurveto
          211 -40 -212 vlineto
          -289 -13 -209 -209 -290 vvcurveto
          -306 217 -200 281 -3 vhcurveto
          -211 vlineto
          endchar
        </CharString>
        <CharString name="cent.1.tnum">
          1183 674 hmoveto
          212 vlineto
          159 8 128 66 65 92 -1 44 rcurveline
          -51 -51 -86 -37 -101 hhcurveto
          -202 -163 161 280 234 121 155 185 60 52 -15 -25 40 hvcurveto
          -67 -56 -55 -72 -71 58 -56 73 69 59 56 75 131 -125 98 -217 3 hvcurveto
          211 -41 -212 vlineto
          -288 -13 -209 -209 -290 vvcurveto
          -306 216 -200 281 -3 vhcurveto
          -211 vlineto
          endchar
        </CharString>
        <CharString name="cent.tnum">
          1183 670 hmoveto
          212 vlineto
          164 8 132 65 67 77 callgsubr
          807 vlineto
          4 40 callgsubr
          69 58 55 74 131 -131 99 -225 2 vhcurveto
          211 -41 -212 vlineto
          -291 231 callsubr
          282 -2 vhcurveto
          -211 vlineto
          -216 775 rmoveto
          189 82 138 134 46 vhcurveto
          -781 vlineto
          -128 60 -88 142 206 vvcurveto
          endchar
        </CharString>
</ttFont>
